<svg xmlns="http://www.w3.org/2000/svg" width="244.76" height="233.81" viewBox="0 0 244.76 233.81"><defs><style>.a{fill:#fff;}</style></defs><title>logo</title><path class="a" d="M103.64,144a.31.31,0,0,0,.09-.35l-7.39-24.89c-.13-.37-.3-.56-.53-.56H91.39c-.23,0-.4.17-.52.52L84,142s-.05,0-.09-.06a.78.78,0,0,0-.08.64l-.31,1.06a.34.34,0,0,0,0,.35.42.42,0,0,0,.28.14c0,.1,0,.23.06.22a.39.39,0,0,0,.06-.2h4.35a.62.62,0,0,0,.41-.17,1,1,0,0,0,.26-.36l.89-3h7.48l.89,3a1.06,1.06,0,0,0,.26.36.63.63,0,0,0,.41.16h4.25A.62.62,0,0,0,103.64,144Zm-12.27-8.38L93.63,128l2.24,7.63Z"/><path class="a" d="M139.9,112.56a1.84,1.84,0,0,0,.06-.43l0-19a1.65,1.65,0,0,0-.08-.45,1.26,1.26,0,0,0-.33-.52L137.44,90a1.2,1.2,0,0,0-.5-.34,2,2,0,0,0-.47-.07h-1.63a.13.13,0,0,0-.16-.07.24.24,0,0,0,0,.07h-4.23a.18.18,0,0,0-.19-.08s0,0,0,.08h-5.54a.46.46,0,0,0-.52.52l0,24.93a.46.46,0,0,0,.52.52H136.5a1.32,1.32,0,0,0,1-.41l2.08-2.09A1.14,1.14,0,0,0,139.9,112.56Zm-5.53-3-.52.52h-4.24l0-15h3.87a.3.3,0,0,1,.27.12l.63.63a.36.36,0,0,1,.11.26V101a.54.54,0,0,0,0,.45v7.89A.46.46,0,0,1,134.37,109.61Z"/><path class="a" d="M119.71,118.42a.44.44,0,0,0-.38-.24h-4.65c-.3,0-.48.17-.56.52l-2.32,8.45h0a1.43,1.43,0,0,0-.07.36L110.2,133l-.37,2.24-.3-2.23-3.37-14.29c-.07-.35-.26-.52-.56-.52H101a.43.43,0,0,0-.37.22.5.5,0,0,0-.08.45L107,143.62a1.07,1.07,0,0,0,.26.39.59.59,0,0,0,.41.16h4.95a.69.69,0,0,0,.43-.17.89.89,0,0,0,.28-.39l6.44-24.76A.5.5,0,0,0,119.71,118.42Z"/><path class="a" d="M159.4,112.53a1.76,1.76,0,0,0,.06-.42l0-19.06a1.65,1.65,0,0,0-.08-.44,1.2,1.2,0,0,0-.33-.52L156.94,90a1.27,1.27,0,0,0-.5-.33,1.62,1.62,0,0,0-.47-.07H144.14a.46.46,0,0,0-.52.52l0,24.94a.46.46,0,0,0,.52.52l11.83,0a1.29,1.29,0,0,0,1-.41l2.08-2.08A1.12,1.12,0,0,0,159.4,112.53Zm-5.53-3-.52.52h-4.24l0-15H153a.29.29,0,0,1,.26.11l.64.63a.4.4,0,0,1,.11.26l0,13.25A.43.43,0,0,1,153.87,109.58Z"/><path class="a" d="M120.42,112.15l0-19.05a1.35,1.35,0,0,0-.11-.59,1.58,1.58,0,0,0-.26-.38l-2.13-2.08a1.41,1.41,0,0,0-.5-.37,2.61,2.61,0,0,0-.46,0h-5.79a1.77,1.77,0,0,0-.18-1.28,2.45,2.45,0,0,0-.22,1.28h-.84c.06-.18,0-.46-.18-.41v.41h-2.4a1.51,1.51,0,0,0-.46.07,1.2,1.2,0,0,0-.5.34l-2.08,2.08a1.27,1.27,0,0,0-.3.47,1.23,1.23,0,0,0-.11.5l0,15.51a.51.51,0,0,0-.16.12,13.81,13.81,0,0,0,.16,1.64v1.78a1.32,1.32,0,0,0,.41,1l2.09,2.08a1.34,1.34,0,0,0,.46.34,1.56,1.56,0,0,0,.46.06v.11a.44.44,0,0,0,.06-.1h9.7a1.2,1.2,0,0,0,.85-.41l2.12-2.09a1.09,1.09,0,0,0,.3-.5A1.84,1.84,0,0,0,120.42,112.15Zm-5.58-2.52-.52.52H110l-.52-.52a.43.43,0,0,1-.11-.26l0-13.25a.41.41,0,0,1,.11-.3l.63-.6a.5.5,0,0,1,.26-.11H114a.36.36,0,0,1,.27.11l.59.59a.4.4,0,0,1,.11.3l0,13.25A.36.36,0,0,1,114.84,109.63Z"/><path class="a" d="M84.64,123.55a.5.5,0,0,0,.17-.38v-4.39a.54.54,0,0,0-.17-.39.53.53,0,0,0-.39-.16H69.36a.54.54,0,0,0-.39.17.5.5,0,0,0-.17.39v.7h0c-.09.09,0,.32-.06.49h.08v3.19a.5.5,0,0,0,.17.38.55.55,0,0,0,.39.14h4.73l0,20.06a.38.38,0,0,0,.17.31.54.54,0,0,0,.35.13H79a.61.61,0,0,0,.35-.13.41.41,0,0,0,.17-.32l0-20.06h4.73A.56.56,0,0,0,84.64,123.55Z"/><path class="a" d="M85.42,94.63a.48.48,0,0,0,.17.37.56.56,0,0,0,.39.15h4.73l0,20a.4.4,0,0,0,.17.32.54.54,0,0,0,.35.13h4.39a.6.6,0,0,0,.36-.12.4.4,0,0,0,.16-.32l0-20.06h4.73a.64.64,0,0,0,.39-.14.49.49,0,0,0,.16-.38V90.22a.58.58,0,0,0-.56-.56H97.47c.33-.37.19-1.14,0-1.61.1-.24.33-.69.06-.92-.25,0-.24.16-.37.24.16.8-.18,1.58.08,2.29H86a.54.54,0,0,0-.39.17.53.53,0,0,0-.16.39Z"/><path class="a" d="M68.74,83.84c0-.21.15-.44.17-.72a6,6,0,0,0-.13-.74c0-.21.13-.42.13-.62,0-.47-.32-.81-.31-1,0-.71.81-1,.93-.13.08.62-.35,1.73-.31,2.41,0,.3.19.61.19.84H70a3,3,0,0,1,.24-1.58c.5.3.17,1,.12,1.58h1.13a.16.16,0,0,0,0-.16h.19c0,.06,0,.11,0,.16h7.83c-.52-.69.06-1.8.12-2.69,0-.55-.25-1.16.06-1.61.1,0,.11.06.19.06.27.54-.12,1.1-.12,1.73,0,.84.33,1.74,0,2.51h31.17a.59.59,0,0,1,.06-.41c.17,0,.21.25.16.41h24.72a.36.36,0,0,1,.07-.1c.06,0,.09.06.12.1h24.79a3.78,3.78,0,0,1,.16-.53c-.07-.46-.2-.89.06-1.24h.19a4.07,4.07,0,0,1,0,1.77h22.05c-.12-.23-.24-.48-.37-.72-.17,0-.22-.21-.21-.38a70.32,70.32,0,0,0-12.34-16.1.32.32,0,0,1-.11.12.75.75,0,0,1-.27-.49,70.11,70.11,0,0,0-18-12.54.16.16,0,0,1-.21.06.51.51,0,0,1,0-.17,70.38,70.38,0,0,0-7.55-3.11c.05.37,0,.79-.22.93-.47-.16-.33-.64-.27-1.09l-.65-.21a.68.68,0,0,1-.26.75c-.23,0-.3-.2-.49-.25-.35.08-.36.5-.62.68-.36-.11-.37-.58-.62-.81-.2,0-.3.11-.55.07s-.19-.49,0-.62.35.14.49.25a1,1,0,0,0,.41-.58q-3.09-.93-6.3-1.57c-.13.42.14.94-.1,1.28A1.19,1.19,0,0,1,134.8,48a70.6,70.6,0,0,0-28.1.25v.3c-.17,0-.19-.11-.18-.26A70.42,70.42,0,0,0,95.7,51.54a.77.77,0,0,1-.3.77c-.2-.07-.26-.29-.25-.54A69,69,0,0,0,84.91,56.9a32.17,32.17,0,0,1-.13,4.55c-.58-.47-.25-1.48-.25-2.23s-.06-1.38,0-2.06l-.79.5a.89.89,0,0,1-.22.76.4.4,0,0,1-.39-.37,71.75,71.75,0,0,0-10.16,8c.48.15.28,1,0,1.23-.42-.19-.28-.88-.08-1.2A71,71,0,0,0,61.19,80.72a2.07,2.07,0,0,1-.19.61.33.33,0,0,1-.11-.09c-.51.86-1,1.73-1.45,2.6Zm103.68-1.21a.54.54,0,0,1,.06-.62A.31.31,0,0,1,172.42,82.63Zm1.29.18c-.26,0-.38-.68.06-.61C173.74,82.38,173.85,82.73,173.71,82.81Zm-.18-6.36c.36.08.41.87,0,.93A1,1,0,0,1,173.53,76.45Zm-.68,4.14c0,.26-.14.38-.31.56C171.76,80.79,172.72,79.87,172.85,80.59Zm-1.67.06h.19c.09.2.09.51-.19.5C171.14,81,171.06,80.77,171.18,80.65Zm-10.19.5a.56.56,0,0,1,.12-.56C161.37,80.62,161.4,81.27,161,81.15Zm.06-16.93c.27,0,.21.4.13.5A.35.35,0,0,1,161.05,64.22Zm4.7,1.86c.14.21,0,.58-.25.55S165.33,66,165.75,66.08Zm-2.41,8.21c.1,0,.1.06.18.06a.82.82,0,0,1-.12.44C163.1,74.76,163.41,74.48,163.34,74.29Zm-2.23-13.21c.7.33.25,1.77,0,2.28A2.61,2.61,0,0,1,161.11,61.08ZM150.68,75.22c-.12-.18-.1-.19-.07-.43a.1.1,0,0,0,.13-.07C151,74.8,151,75.21,150.68,75.22Zm4.63,7.9h-.19v-.18h.19Zm-.12-4.44c.29,0,.14.41.12.62C155,79.29,155.12,78.85,155.19,78.68Zm.12,2.71c-.21.07-.1-.19-.12-.3C155.37,81,155.45,81.35,155.31,81.39Zm4.51,0c-.09,0,0-.15-.06-.24C160,81.09,159.86,81.35,159.82,81.39Zm-.06,1.18c.39,0,.36.74.24,1.05-.27-.15-.32-.5-.43-.81A1.55,1.55,0,0,0,159.76,82.57Zm-2.29.12c.43,0,.41.91-.06.87A1.09,1.09,0,0,1,157.47,82.69Zm-2.16-4.51c-.35-.21-.27-1-.12-1.36C155.54,76.92,155.5,77.93,155.31,78.18Zm-.19-14.45c.21-.08.15.42.07.43C155,64.21,155.07,63.78,155.12,63.73ZM154,80.41c.25,0,.32.25.31.55a.35.35,0,0,0-.19.19C153.78,81,153.84,80.68,154,80.41Zm-1,2.53c.1,0,.11.06.19.06a.59.59,0,0,1-.13.49C152.72,83.46,152.74,83,152.9,82.94Zm-1-13.4c.33.12.33.81-.18.74C151.5,70,151.75,69.73,151.91,69.54ZM150.8,54H151c0,.17,0,.33-.19.3A.22.22,0,0,1,150.8,54Zm-.06,15.74c.31.07.31.61.06.74C150.35,70.48,150.5,69.94,150.74,69.78Zm-.19,13.53c.23,0,.28.49,0,.43A.54.54,0,0,1,150.55,83.31Zm-4.44.12c-.3-.1-.05-.64,0-.8s.1.06.18.06C146.42,82.91,146.35,83.38,146.11,83.43Zm-.07-4c.1,0,.11.06.19.06,0,.43.24,1.49-.12,1.73A3.78,3.78,0,0,1,146,79.48Zm-2.22,1.17c.16,0,.31.46,0,.44C143.84,80.89,143.68,80.79,143.82,80.65Zm-4.45-31.49c.09.05.2.09.19.24a.31.31,0,0,1-.25.06A.39.39,0,0,1,139.37,49.16ZM98.74,82c-.22,0-.22-.22-.13-.31S98.83,81.92,98.74,82ZM102,74.79c-.2-.21-.15-.67.31-.56C102.3,74.56,102.2,74.75,102,74.79Zm.06,1.42a.32.32,0,0,1,0-.56C102.27,75.69,102.24,76.16,102,76.21Zm3.21,5.8c-.21-.07-.21-.41-.12-.62h.25A.49.49,0,0,1,105.22,82ZM105.16,77c-.31-.29-.11-.81.06-1.11C105.51,76,105.62,76.91,105.16,77Zm3.52,4.32a.66.66,0,0,1,.06-.62C109,80.75,109,81.26,108.68,81.27ZM110,76.76c-.3.06-.37-.32-.25-.49C110.1,76.2,110.18,76.58,110,76.76ZM109.79,75v-.12c.06,0,.06,0,.06-.06H110c0,.05,0,.06.06.06V75c-.05,0-.06,0-.06.06h-.13S109.83,75,109.79,75ZM111,82.69c-.19-.13-.22-.77.18-.68C111.28,82.25,111.32,82.63,111,82.69Zm.12-1.85v-.19C111.27,80.56,111.27,80.93,111.09,80.84Zm16.12-21c-.22,0-.19-.18-.19-.37h.19Zm3.21,13.59c-.29,0-.16-.34-.19-.56h.19C130.44,73.16,130.49,73.17,130.42,73.43Zm0-1c-.31,0-.19-.55-.06-.62S130.5,72.33,130.42,72.44Zm1.11-17.29c-.29,0-.13-.34-.06-.5C131.73,54.58,131.72,55.14,131.53,55.15Zm3.15,17.91c.29,0,.24.27.19.43C134.62,73.53,134.69,73.25,134.68,73.06ZM134,48.29a.43.43,0,0,1-.18.62C133.5,48.82,133.47,48.17,134,48.29ZM132.4,48h.49c-.17.51.15,1.21-.25,1.55C132,49.29,132.64,48.53,132.4,48Zm.37,3.52c-.36,0-.41-.67-.19-.86C132.94,50.63,133,51.31,132.77,51.5Zm-.13,2c.51.16.55,1.06.13,1.36C132.33,54.66,132.06,53.65,132.64,53.48Zm-.68.19c-.11.19-.15.46-.43.49a.75.75,0,0,1,0-.74C131.85,53.33,131.8,53.61,132,53.67Zm-.37-5c0,.15-.16.15-.24.07S131.51,48.64,131.59,48.72ZM130.23,51c.43-.05.35.56.13.68A.44.44,0,0,1,130.23,51Zm-.74,3a.44.44,0,0,1-.49-.31C128.87,52.92,130,53.25,129.49,53.91ZM127,51.75c.24,0,.24.39,0,.37Zm.06,1.48a.36.36,0,0,1-.06.68C126.78,53.79,126.78,53.28,127,53.23Zm-1,19c-.22,0-.18-.33-.06-.43S126.09,72.15,126,72.25Zm0-21.36v.24c-.16,0-.26,0-.24-.18A.3.3,0,0,1,126,50.89Zm0,2.84c.09.24.13.78-.18.8S125.58,53.65,126,53.73Zm-1.23-.5c.26.07.33.56.12.74a.53.53,0,0,1-.31-.55C124.62,53.36,124.68,53.29,124.74,53.23ZM123.5,72h.13v.24h-.13Zm-.92-20.57h.12c.09.11.14.55-.12.5A.5.5,0,0,1,122.58,51.44Zm-1,2.41c-.26-.09-.22-.64-.06-.8C121.7,53.1,121.73,53.73,121.53,53.85Zm0,1.24c-.36-.14-.17-.52-.13-.87C121.82,54.24,121.58,54.84,121.53,55.09Zm-.25-4.2h.25c.08.18.1.5-.06.61C121.23,51.4,121.23,51.12,121.28,50.89Zm.06,16.86c.25.09.42,1,0,1C121.11,68.49,121.31,68.13,121.34,67.75Zm0,2c.1,0,.11.06.19.07a3.7,3.7,0,0,1-.31,2.59A9.54,9.54,0,0,1,121.34,69.78Zm-.12,5.75c.44.27.31,1.16.12,1.6C120.89,77,121.11,75.88,121.22,75.53Zm-.93-21.93c-.23.06-.11-.32-.06-.37C120.46,53.23,120.44,53.54,120.29,53.6ZM120.17,48h.12c.09.25.18,1-.18,1C120,48.65,120.11,48.28,120.17,48Zm-1.24,20.07c.51,0,.61.94.13,1S118.71,68.25,118.93,68.05Zm-1.05-.37h.19c.38.62,0,1.77,0,2.6-.61-.16-.25-.87-.25-1.36S117.52,67.94,117.88,67.68Zm0-18h.19a1.1,1.1,0,0,1-.13.74C117.7,50.21,117.8,49.94,117.88,49.65Zm-.06,1H118c.13.14.21.68,0,.8C117.66,51.37,117.66,50.9,117.82,50.64Zm.25,2.41c.09.21.1.61-.13.68C117.53,53.72,117.67,53,118.07,53.05ZM118,75.71c.2.22.15.73-.25.68C117.58,76.21,117.55,75.62,118,75.71Zm-1.42-7.53h.12c.68.41-.12,1.08.12,1.85-.28.06-.21-.56-.12-.68A1.49,1.49,0,0,1,116.59,68.18Zm-.81,1.17a.18.18,0,0,0,.13.19c-.1.17-.13.4-.43.37C115.32,69.68,115.34,69.28,115.78,69.35Zm-1.23-20.07c.46-.05.35.8-.06.74A.79.79,0,0,1,114.55,49.28Zm0,2a.62.62,0,0,1,0-.5C114.84,50.77,114.78,51.35,114.55,51.32Zm.06,1v.25h-.12v-.25Zm-.12.74c.31,0,.17.7.12.93A.6.6,0,0,1,114.49,53.11Zm-.07,12.1h.19c0,.22.09.46-.19.5Zm0-7.78c.26-.07.26.44,0,.37S114.41,57.58,114.42,57.43Zm0,10.81c.58,0,.41,1,0,1A1.22,1.22,0,0,1,114.42,68.24Zm0,1.17c.48,0,.4,1.11,0,1.18C114.29,70.21,114.15,69.74,114.42,69.41Zm-1.17,6.36c.49,0,.4.66.12.81C113,76.53,113.12,76,113.25,75.77Zm-.93-7c-1-.18.34-1,0,0Zm-1.23-1.12c.51.21.36,1,.06,1.3C110.54,68.85,110.87,68,111.09,67.68ZM111,69.47c.4.09.39.9.06,1C110.6,70.45,110.78,69.67,111,69.47Zm-.06,3h.24c.13.17.07.57-.18.56A.66.66,0,0,1,111,72.5Zm.18-1.48a.6.6,0,0,1,0,.49C110.86,71.57,110.92,71,111.15,71Zm.12,4.63c.32.22.1,1.2-.18,1.24S110.56,75.68,111.27,75.65Zm-1.35-9.57c.35,0,.49,1.11.06,1.17C109.77,67.05,109.84,66.37,109.92,66.08Zm.37,2.41c0,.38-.27.66-.56.55C109.49,68.63,110,68,110.29,68.49Zm-1.42-10.81c.1,0,.1.06.18.06s-.07.13-.06.25C108.78,58,108.77,57.77,108.87,57.68Zm.06,4.82c.28.1.24.82-.06.86A.74.74,0,0,1,108.93,62.5Zm0,3.76c.45.5.08,1.41.06,2.1,0,.53.25,1.09-.12,1.42A4.28,4.28,0,0,1,108.93,66.26Zm-.19,5.25c0-.2.05-.28.06-.43C109.09,71,109.07,71.64,108.74,71.51Zm.06,3.77c-.06-.26-.33-1,.19-.93a.69.69,0,0,1-.06.87c.41.52.71,1.28-.06,1.6C108.18,76.56,108.4,75.68,108.8,75.28Zm-1-26.12c.23,0,.15.46-.07.37C107.75,49.37,107.75,49.23,107.82,49.16Zm-.25,19.45h.18c.12.18.09.64-.18.62C107.45,69.09,107.52,68.76,107.57,68.61Zm.06,13c0,.13.08.41-.06.43s-.18-.23-.19-.43Zm-1.11-31.93c.31-.08.35.47,0,.37Zm-.19,12.91c.6-.13.59.73.25.86S106.22,62.85,106.33,62.56Zm.44,5.19c-.13,1.27-.91-.41,0,0Zm-.37,1.91c-.16-.16-.2-.61.18-.56C106.7,69.27,106.65,69.68,106.4,69.66Zm.43,6.36a.9.9,0,0,1-.37.68C105.39,76.23,106.76,74.76,106.83,76Zm-1.24-13.15c-.32,0-.16-.57-.12-.75C105.76,62.25,105.59,62.55,105.59,62.87Zm0-12.11c0,.23,0,.5-.24.43C105.34,51,105.3,50.69,105.59,50.76Zm-.31,17.79a.63.63,0,0,1,0,1c-.21,0-.29-.12-.43-.19s-.36.27-.62.13C104.34,69,105.2,69.15,105.28,68.55Zm-2.34,12.84h.25c0,.14.15.52-.07.56S102.9,81.62,102.94,81.39ZM102.2,51.5c.2,0,.28.67.06.74C101.94,52.1,102.17,51.78,102.2,51.5Zm-.06,16.12a.4.4,0,0,1,.06.74C101.82,68.29,102,67.83,102.14,67.62Zm-.07,1.48c.45.05.2.74.07.93C101.72,70,101.74,69.19,102.07,69.1ZM102,81.52c.34.11.28.74,0,.86s-.16-.16-.31-.18C101.63,81.79,101.87,81.7,102,81.52Zm-1.23-13.71c.28,0,.15.34.18.55C100.56,68.47,100.6,67.92,100.78,67.81Zm-1,1.54c.28,0,.24.49-.06.37A.52.52,0,0,1,99.79,69.35Zm.06,12.54c.09.19,0,.28-.06.43a.32.32,0,0,1-.25-.37A.41.41,0,0,1,99.85,81.89Zm-1.17-30c.26.05.18.43.06.56S98.59,52,98.68,51.87Zm0,11.92c-.07-.26,0-.27,0-.55C99,63.17,99,63.86,98.68,63.79Zm.06,5.13c-.43,0-.46-.45-.56-.8C98.56,67.31,99.34,68.57,98.74,68.92Zm-.81-.8a.51.51,0,0,1-.37.06C97.16,67.7,98,67.48,97.93,68.12ZM84.6,81c.5.25.07,1,0,1.36A.84.84,0,0,1,84.6,81Zm0-2.9c.24,0,.16.21.06.31S84.51,78.2,84.6,78.12Zm.06,5.13c-.36-.06-.22-.56-.13-.81C84.84,82.46,85,83.14,84.66,83.25Zm2.41-1.61c-.23.06-.11-.27-.07-.31S87.17,81.65,87.07,81.64Zm8.15,1.79h-.13v-.25h.13Zm0-7.22c-.47-.19-.26-1.49-.06-1.8C95.51,74.67,95.6,76,95.22,76.21Zm-.13-7h.19c0,.21.09.35-.06.49C94.94,69.63,95.08,69.37,95.09,69.17Zm.25-12.48c.23.14.22.71.12,1C95.09,57.58,95.24,57,95.34,56.69Zm-.18,9.57h.18c-.2.83.61,1.77-.12,2.16C94.61,68.06,95.07,66.87,95.16,66.26ZM92.87,53.05c.3-.09.15.26.19.43C92.81,53.47,92.82,53.2,92.87,53.05ZM91.82,68.3a.75.75,0,0,1-.12.8C91.39,69,91.37,68.28,91.82,68.3Zm-1.3-1.11c.29,0,.19.5.13.68A.59.59,0,0,1,90.52,67.19Zm-1.11-6.92c.11,0,.11.35-.06.25S89.39,60.36,89.41,60.27Zm-.06,2.9c.3,0,.32.46.12.56S89.21,63.32,89.35,63.17Zm.12,3.4c.35.44-.08,1.21-.49.68C89,66.87,89.14,66.63,89.47,66.57Zm-2.4-9.32c.32.16.2,1.09.06,1.36C86.64,58.45,86.9,57.61,87.07,57.25Zm-.07,6a.36.36,0,0,1-.06.68A.51.51,0,0,1,87,63.24Zm-.12,3.15c.5,0,.63.77.19.92C86.68,67.2,86.77,66.74,86.88,66.39ZM86,65.65c.21,0,.24.17.25.37-.12,0-.11.17-.31.12A.46.46,0,0,1,86,65.65Zm-1.29-3.9c.28.12.12.56.06.81C84.47,62.46,84.64,62,84.66,61.75Zm0,1.36c.07,0,.11,0,.12.06A6.64,6.64,0,0,1,85,65c0,.37-.26.72-.25,1s.22.52.25.8a4.61,4.61,0,0,1-.07.68c-.06,1.15.31,2.62-.3,3.15-.37-.41-.07-.84-.07-1.36,0-.72-.34-1.51-.31-2.22,0-.28.22-.53.25-.8C84.61,65.21,83.87,64,84.66,63.11ZM79.53,72h.19c0,.16.07.49-.07.55S79.45,72.12,79.53,72Zm.12,6.54c0-.14-.12-.25,0-.37h.19C79.84,78.37,79.85,78.56,79.65,78.55Zm2.48,4.94c-.38-.06-.32-1-.07-1.11C82.4,82.51,82.38,83.28,82.13,83.49Zm1.17-2.65c.22-.1,0,.21.18.18C83.39,81.22,83.11,81,83.3,80.84Zm.18-18.16c.13.11-.27.3-.18.06C83.31,62.72,83.43,62.63,83.48,62.68Zm-.18,1.11h.18c.24.38.26,1-.24,1.11C82.94,64.6,83.16,64.15,83.3,63.79Zm-.06,2.84c.59.3.34,1.46.12,2A2,2,0,0,1,83.24,66.63Zm-1,.13c.25.23,0,.79-.19.92C81.55,67.55,81.81,66.8,82.25,66.76ZM82,80.34a1.07,1.07,0,0,1,.13,1.55C81.54,81.71,81.62,80.68,82,80.34Zm-.55-12.9c-.18.25-.26.61-.56.74C80.37,67.58,81.09,66.44,81.45,67.44ZM81,69.29c-.29-.06-.17-.51-.06-.68C81.18,68.68,81.06,69.12,81,69.29Zm0,8.83a.71.71,0,0,1-.06.68C80.6,78.77,80.49,78.05,81,78.12Zm-.25,1.73h.19c.63.58.08,1.2,0,1.79-.06.41.26.78-.06,1.11-.35-.15-.14-.83-.06-1.11A2.74,2.74,0,0,1,80.7,79.85Zm-.92-16.68c.26-.05.24.17.37.25-.05.22-.12.41-.43.37A.6.6,0,0,1,79.78,63.17Zm-.13,1.49c.18,0,.16.08.31.06.06.32.08.61-.31.62A.64.64,0,0,1,79.65,64.66Zm.07,2c.57.5.1,1.46,0,2.1-.32-.24-.16-1-.44-1.24C79.34,67.18,79.71,67.12,79.72,66.7Zm-1,.74c.1,0,.1,0,.18.06S78.63,67.59,78.73,67.44Zm.06-2.54c-.14,0-.13-.15-.12-.3C78.88,64.55,78.89,64.81,78.79,64.9Zm-.31,7.17c.36,0,.34.45.12.62C78.31,72.65,78.31,72.24,78.48,72.07Zm-1-7.35c.18-.09.18.27,0,.18Zm0,1.48c.3,0,.17.35.07.43C77.29,66.65,77.49,66.3,77.49,66.2ZM74.9,80.47c.1,0,.11.06.18.06a2.56,2.56,0,0,1,.07.86A.89.89,0,0,1,74.9,80.47Zm-.62,0c-.08.3-.17.62-.43.62C73.2,81.06,73.75,79.86,74.28,80.47Zm-1.42-5.75c-.22,0-.19-.18-.18-.37h.24C73,74.54,72.86,74.58,72.86,74.72Zm-.06,2c-.25-.09-.18-.43-.12-.68C72.94,76,72.89,76.55,72.8,76.7Zm-.12-4.14c.42,0,.32.54.18.74C72.54,73.3,72.59,72.79,72.68,72.56Zm-.07,7.85h.19a1.61,1.61,0,0,1-.12,1.42C72.38,81.6,72.57,80.84,72.61,80.41Zm0,1.91c.36.08.36,1-.12.93A1.07,1.07,0,0,1,72.61,82.32Zm-2.34-1.85c.42,0,.24.79.06.92A.63.63,0,0,1,70.27,80.47Zm-5.68,1.42c.38-.07.37.54.18.68C64.51,82.44,64.55,82.18,64.59,81.89Zm-1.18-1.3a.92.92,0,0,1-.06.8C63,81.39,63,80.5,63.41,80.59Z"/><path class="a" d="M170.75,150.32a.47.47,0,0,1-.06-.35h-24a1,1,0,0,1-.22.72c-.28-.1-.31-.43-.25-.72h-4a.92.92,0,0,1-.27.78,1,1,0,0,1-.34-.78H141a2.81,2.81,0,0,1-.09.47.86.86,0,0,1-.27-.47h-4.38c0,.36-.08.73-.11,1.09a4.23,4.23,0,0,1-.29-1.09h-1c.22.05.18.53,0,.59s-.13-.48-.07-.59h-1c0,.05,0,.11,0,.16a1,1,0,0,1,0-.16h-4.43a.27.27,0,0,1-.22.22s-.14-.1-.24-.22H118.71l0,0-.07,0h-.78a.54.54,0,0,1-.51,0h-.68a1.71,1.71,0,0,1-.25.22c-.17-.07-.31-.16-.46-.22h-.52a.38.38,0,0,0-.13,0s0,0,0,0H107.5a.38.38,0,0,1-.12.16.25.25,0,0,1-.25-.16h-3.25a.08.08,0,0,1,0,0,.16.16,0,0,1-.14,0h-16a1.21,1.21,0,0,1-.28.84c-.47-.12-.49-.46-.42-.84h-3a1.53,1.53,0,0,1-.38,1c-.07-.36,0-.8-.24-1H71.79c.21.05.17.51.08.66-.26,0-.21-.5-.13-.66H59.43a70.21,70.21,0,0,0,123.87,0H170.91C171,150.13,171,150.34,170.75,150.32Zm-89.49,6.73v.25C81,157.34,81.06,157,81.26,157.05Zm-3.89,4.88c.21-.07.1.19.12.31C77.28,162.28,77.27,162,77.37,161.93Zm.06-1.24c0-.13,0-.16.06-.25A.13.13,0,1,1,77.43,160.69Zm-.18,6.42c.3,0,.16.41.12.56C77.07,167.7,77.2,167.26,77.25,167.11Zm-14-15.93a.52.52,0,0,1-.06-.8C63.55,150.43,63.39,151,63.29,151.18Zm1.11,5.25c-.1-.13-.19-.27-.29-.41a.41.41,0,0,1,.23,0A.47.47,0,0,1,64.4,156.43Zm1.24,1a3.16,3.16,0,0,0,0,.69l-.35-.46c0-.86.1-1.71.17-2.45h.12a8.67,8.67,0,0,1,.25,1.6C65.81,157,65.66,157.21,65.64,157.42Zm1.35,1c0,.47,0,1,0,1.43l-.51-.63c0-.59.1-1.17.09-1.73,0-.27-.2-.58-.18-.86s.24-.47.3-.74a10.46,10.46,0,0,1,.25-1.67C67.51,155.47,67.12,156.94,67,158.41Zm.19-6.3c0,.58.18,1-.19,1.29-.54-.34.06-1.45-.37-1.91a2.59,2.59,0,0,1,.44-.74C67.59,151,67.22,151.46,67.18,152.11Zm3.27,5.06c-.33,0-.28-.52-.12-.68s.11.06.18.06S70.61,157.11,70.45,157.17Zm1.11,5.25c-.16,0-.17-.43-.06-.49S71.67,162.3,71.56,162.42Zm.07-2.22c-.34-.09-.34-.84.12-.81C71.78,159.75,71.82,160,71.63,160.2Zm.43-3.46c0,.29-.21.53-.25.8s.25.86-.18,1.05c-.11-1.52-.39-3.14.06-4.44q.11,0,.12.06A13.32,13.32,0,0,1,72.06,156.74Zm5.12,11.73h.19c.08.11.14.6-.06.62S77.09,168.61,77.18,168.47Zm-.05,1.64a.34.34,0,0,1,.12-.09.51.51,0,0,1,.39.5Zm.36-11.33c-.15-.22-.14-.63.25-.62C77.86,158.41,77.78,158.76,77.49,158.78Zm.19-1.24c-.52-.23-.09-1.16,0-1.54C78.32,156.19,77.73,157.1,77.68,157.54Zm.75,13.61-.1-.07c-.07-.33,0-.8.15-.94C78.77,170.27,78.7,171,78.43,171.15Zm1.66-13.79c-.7.14-.47-.94,0-.87C80.29,156.64,80.24,157.2,80.09,157.36Zm.74,14.2c-.25,0-.07-.38-.13-.55h.19A.49.49,0,0,1,80.83,171.56Zm.24-12.29c0-.33-.14-.69,0-1C81.48,158.29,81.38,159.24,81.07,159.27Zm2.35,13.9v.24C83.18,173.46,83.22,173.15,83.42,173.17Zm0,1.58-.06,0h.07S83.48,174.74,83.47,174.75Zm.32-16c-.43-.1-.33-.85-.12-1.12C83.91,157.76,83.89,158.4,83.79,158.72Zm0-2.17c-.47-.11-.27-.87-.12-1.17C84,155.45,83.86,156.3,83.79,156.55ZM87.07,172c-.22,0-.1-.29-.07-.43C87.32,171.61,87.23,171.86,87.07,172Zm.18-13.27c-.32-.1-.31-.7.12-.68A.46.46,0,0,1,87.25,158.72Zm-.06-1.79v-.19C87.37,156.65,87.37,157,87.19,156.93Zm.18-1.49c-1.11-.43.72-1.48,0,0Zm14.83,22c.26,0,.07.44.06.55C102.06,178,102.12,177.53,102.2,177.43Zm-1-7.41h.18c0,.18,0,.37-.18.37Zm-2.35-4.57h.12v.24H98.8Zm.18,4.44a.6.6,0,0,1-.12.81C98.48,170.68,98.51,169.78,99,169.89Zm-.06,2.41a.66.66,0,0,1-.12-1C99.13,171.42,98.94,172,98.92,172.3Zm-1.23-.8c.21-.06.09.19.12.31C97.63,171.82,97.62,171.56,97.69,171.5Zm-4.51-16.61c.22,0,.28.56.06.62S93.08,155,93.18,154.89Zm-1.24-.06c.25,0,.18.23.19.43C91.88,155.3,92,155,91.94,154.83Zm.13,3.33a.3.3,0,0,1-.06.43C91.69,158.62,91.81,158.1,92.07,158.16Zm-1.36,3.21h.18c0,.2.14.24,0,.37S90.6,161.49,90.71,161.37Zm-2.29-6.67c.23,0,.19.18.19.37C88.39,155.11,88.42,154.89,88.42,154.7Zm-.24,17.36c-.65-.06-.23-.83-.06-1.12.1,0,.1.06.18.07C88.36,171.27,88.49,172,88.18,172.06Zm.37-13.47c-.19,0-.19-.18-.19-.37C88.58,158.19,88.55,158.4,88.55,158.59Zm.06-2c-.51,0-.28-.84-.19-1.11C88.77,155.53,88.54,156.19,88.61,156.55Zm.62,19.21c-.22-.18-.14-.79.24-.74C89.67,175.27,89.76,175.81,89.23,175.76Zm0-3.64c-.35-.32,0-.73.06-1.11C89.81,171.12,89.87,172.1,89.23,172.12Zm.43-13.65c-.07,0,0-.11-.06-.19s.11.05.12.13S89.66,158.43,89.66,158.47Zm.12-3c-.4,0-.43-.92.07-.87A.75.75,0,0,1,89.78,155.51Zm.74,20.56a.71.71,0,0,1-.37-.74.79.79,0,0,0,.25-.19A.6.6,0,0,1,90.52,176.07Zm1.12-3.89a1.17,1.17,0,0,1-.5-.43,2.48,2.48,0,0,1-.55.24c-.62-.05-.41-.78-.13-1.05.36.08.4.47.62.68.25,0,.31-.26.62-.24A.51.51,0,0,1,91.64,172.18Zm.43-10.25h-.31c-.22-.4.24-.91.49-.5C92.24,161.65,92.08,161.71,92.07,161.93Zm.86,12.78a.48.48,0,0,1,0-.49h.19C93.19,174.39,93.19,174.7,92.93,174.71Zm.25-12.91c-.91-.08-.25-1.18-.12-1.66C93.51,160.32,93.23,161.36,93.18,161.8Zm.06-2.78c-.49-.35-.27-1.46-.12-2h.18A4.38,4.38,0,0,1,93.24,159Zm.87,12.91c0-.2,0-.29.06-.43h.18C94.48,171.66,94.42,172,94.11,171.93Zm1.48-10.37c-.22,0-.22-.22-.13-.31S95.56,161.44,95.59,161.56Zm1.72,20.16a.9.9,0,0,1,.13-.28c.3,0,.41.27.51.51Zm1.47.52-.69-.24,0-.06C98.43,181.36,99,181.83,98.78,182.24Zm0-6.85c-.39-.15,0-.93,0-1.23a.91.91,0,0,1,.43.3A3.62,3.62,0,0,1,98.8,175.39Zm1,6.61a.25.25,0,0,1,0-.49C100,181.72,99.94,181.79,99.85,182Zm-.06-7.17c-.5-.05-.33-.84.18-.74A.91.91,0,0,1,99.79,174.83Zm.49-16.61c-.41-.15-.75-.5-1.17-.31a.59.59,0,0,1,0-.55c.52.22.82-.11,1.11-.31C100.58,157.22,100.3,157.87,100.28,158.22Zm-.06-3.95a5.88,5.88,0,0,1-.12-2.47c.26-.08.16.2.31.24C100.16,152.92,100.66,153.56,100.22,154.27Zm.62,28a.91.91,0,0,1,.12-1C101.27,181.4,101.17,182.19,100.84,182.25Zm.43-9.27a1.85,1.85,0,0,1-.12-1.6C101.55,171.6,101.34,172.62,101.27,173Zm.87,9.82c0-.74-.39-1.49.06-2C102.69,181.19,102.46,182.34,102.14,182.8Zm1.29-.31c-.32-.07-.28-.64-.12-.86C103.65,181.7,103.56,182.27,103.43,182.49Zm1-3.21h.19c0,.18,0,.34-.19.31Zm-.06,3.65c.09-.6-.31-1.68.06-2.29.59.11.35,1.09.12,1.42C104.48,182.35,104.7,182.92,104.36,182.93Zm1.42,1.33-.15,0h.15Zm.06-1.83c-.34-.2-.18-.77-.19-1.17h.19C105.87,181.6,106.12,182.17,105.84,182.43Zm0-3.64c-.39-.3-.1-1.21-.06-1.67A1.44,1.44,0,0,1,105.84,178.79Zm.19-23.53c-.29-.06-.23-.67,0-.74S106.19,155.13,106,155.26Zm1,16a.47.47,0,0,1,0-.43C107.36,170.77,107.3,171.29,107.08,171.25Zm12.84-19.76c.37,0,.41.76.06.86S119.72,151.63,119.92,151.49Zm-2.41.31a.34.34,0,0,1,.31.31.4.4,0,0,1-.31.06C117.49,152,117.39,151.91,117.51,151.8Zm.25,3c-.25.06-.21-.33-.12-.43S117.86,154.66,117.76,154.76Zm-2.59-.37h.18a.57.57,0,0,1-.12.56C115,154.83,115.09,154.61,115.17,154.39Zm.12,3.52c-.25,0-.16-.16-.12-.31C115.37,157.54,115.26,157.8,115.29,157.91Zm-6.05,19.58h.18a2.89,2.89,0,0,0-.06.8C109,178.21,109.31,177.82,109.24,177.49Zm0,1.3c.3,0,.14.41.12.61C109.07,179.46,109.16,178.91,109.24,178.79Zm0,1.48c.33,0,.33.83.06.93C108.89,181.14,109.17,180.55,109.24,180.27Zm-1.11,4.26c-.2,0-.11-.31-.13-.49C108.27,184,108.21,184.43,108.13,184.53Zm-.07-2a1.22,1.22,0,0,1,0-.8C108.35,181.65,108.35,182.54,108.06,182.49Zm.31-29.15c-.12,0-.12-.16-.24-.18,0-.22.05-.4.3-.37A.46.46,0,0,1,108.37,153.34Zm1,31.56a2.94,2.94,0,0,1-.12-2.47C109.9,182.84,109.47,184.19,109.36,184.9Zm1.11-15.31c.11,0,.14.1.13.24C110.4,169.86,110.37,169.68,110.47,169.59Zm.06-1.12c-.22.06-.11-.26-.06-.3S110.67,168.45,110.53,168.47Zm.25-12.35c-.2-.07-.21-.36-.12-.55h.18C111,155.72,110.87,156,110.78,156.12Zm.06-3.7c-.52-.12-.31-1.24-.12-1.55A1.83,1.83,0,0,1,110.84,152.42Zm.87,25.75c-.29,0-.16-.34-.19-.56h.19C111.7,177.87,111.82,178,111.71,178.17Zm1.17-25.88c-.12-.13,0-.41,0-.55C113.2,151.74,113.18,152.28,112.88,152.29Zm2,17.6v-.37c.13,0,.16,0,.25.07C115.18,169.79,115.09,169.88,114.92,169.89Zm.06-1.29c-.3-.27-.27-1.24.25-1.24C115.51,167.71,115.42,168.46,115,168.6Zm.12-7.91c-.12-.13,0-.41,0-.55C115.54,160.1,115.44,160.69,115.1,160.69Zm.13-8.52c-.13-.25,0-.48.12-.68A.35.35,0,1,1,115.23,152.17ZM116.4,170c-.53-.25-.18-.91-.25-1.42,0-.24-.21-.44-.24-.68a6.24,6.24,0,0,1,.37-1.92,2.68,2.68,0,0,1,.12,2.29C116.41,168.75,116.66,169.56,116.4,170Zm-.12-8.84c-.79-.29-.36-1.1,0-1.54A.91.91,0,0,1,116.28,161.12Zm.18-3.45c-.22.05-.08-.25-.12-.37C116.56,157.24,116.42,157.54,116.46,157.67Zm-.12-1.61c.12-1-.38-2.21,0-3,.1,0,.11.06.18.07C116.64,153.89,116.75,155.54,116.34,156.06Zm.06-3.64c-.22-.17-.39-.27-.37-.56C116.09,150.9,117.28,152,116.4,152.42Zm1,25.25c.55.56.11,1.92.06,2.66a4.71,4.71,0,0,1-.37-1.42A2.91,2.91,0,0,1,117.39,177.67Zm0-1.17c.3.08.13.48.12.74C117.2,177.28,117.32,176.65,117.39,176.5Zm.06,7.66c-.38,0-.29-.78-.12-.93C117.72,183.35,117.48,183.82,117.45,184.16Zm-.12-1.79a4.69,4.69,0,0,1,0-1.67C117.91,181,117.79,182,117.33,182.37Zm.12-6.61c-.84-.57.07-1.56-.06-2.53.1,0,.11.06.18.06C117.52,174.23,118,175.14,117.45,175.76Zm-.06-5.87a.53.53,0,0,1,.06-.37C117.64,169.53,117.63,170,117.39,169.89Zm1.11-2.1c-.56-.21-.62.34-1,.5a1.45,1.45,0,0,1-.06-1.36c.42.1.64.39,1.17.37C118.72,167.49,118.61,167.64,118.5,167.79Zm.19-6.79c-.41.05-.72.19-1.12.25-.74-.38-.29-1.91.5-1.18.25.09.47-.17.55-.06C119.1,160.15,118.88,160.73,118.69,161Zm-.07-6.36h.19c0,.15.12.43,0,.56S118.51,154.8,118.62,154.64Zm.07-2.16c-.2-.08-.36-.18-.37-.31C118.22,151.37,119.51,152,118.69,152.48Zm1,29.21c-.35-.07-.15-.67-.07-.86C120,180.87,120,181.56,119.74,181.69Zm.06-8.15c-.24,0-.12-.43-.06-.5h.18C119.93,173.25,119.94,173.47,119.8,173.54Zm.06-3.77c-.33,0-.15-.45-.06-.55C120.07,169.14,120,169.76,119.86,169.77Zm.12-9c-.56,0-.22-1.18.13-.56C120.16,160.54,120,160.61,120,160.82Zm0-5.38c-.37-.14-.25-.87-.06-1.11C120.32,154.43,120.33,155.27,120,155.44Zm19.46-2.1h.18c.08.13.15.65-.06.68S139.27,153.52,139.44,153.34Zm-1.12-.24c.29,0,.26.35.13.49A.38.38,0,0,1,138.32,153.1Zm.07,11.24c.2,0,.26.51.06.61S138.25,164.41,138.39,164.34Zm-2.29,8.15c.18,0,.29.39.06.43S136,172.56,136.1,172.49Zm-1.17-.19a.47.47,0,0,1,.25.5c-.19.18-.25.18-.44,0S134.84,172.45,134.93,172.3Zm-.06,5.13c-.27,0-.07-.33-.06-.43C135,176.92,135,177.41,134.87,177.43Zm-1.24-26.19c.29-.06.27.63-.06.5C133.58,151.56,133.54,151.33,133.63,151.24Zm0,6.18h.19c.45.46.06.92,0,1.48,0,.32.24.59,0,.8A2.14,2.14,0,0,1,133.63,157.42Zm.31,15.25c0,.29-.31.29-.31,0A.23.23,0,0,1,133.94,172.67Zm-1.42-14.39c.2-.05.19.1.31.13,0,.27-.05.48-.37.43C132.47,158.65,132.42,158.39,132.52,158.28Zm-2.16-6.67a.51.51,0,0,1-.06.37h-.25C129.85,151.74,130.1,151.42,130.36,151.61Zm-1.3-.24c.41,0,.36.63.13.8-.23,0-.24-.22-.38-.31A1.2,1.2,0,0,1,129.06,151.37Zm.25,21.24c0,.3,0,.53-.19.62-.4,0-.24-.62-.06-.74C129.15,172.52,129.22,172.58,129.31,172.61Zm-1.42-15.75c.18-.06.11.14.12.25h-.18C127.8,157,127.87,157,127.89,156.86Zm-.06,3.21c.34,0,.24.49.18.75C127.57,160.84,127.58,160.25,127.83,160.07Zm-3.34,23.53s-.06,0-.06.07-.05-.12-.06-.19S124.48,183.53,124.49,183.6Zm-1.17-31.86V152c-.13,0-.17,0-.25-.06S123.16,151.73,123.32,151.74Zm-1-1.18c.1,0,.1.06.18.07,0,.25,0,.49-.31.43A.54.54,0,0,1,122.27,150.56Zm-.13,34c-.4,0-.25-.88-.12-1.11.1,0,.11.06.19.06A1.63,1.63,0,0,1,122.14,184.59Zm0-5.31c-.45-.38-.08-1.33-.06-2C122.59,177.73,122.12,178.75,122.14,179.28Zm0-3.64a1.26,1.26,0,0,1,0-1C122.56,174.67,122.39,175.55,122.14,175.64Zm.07-23.47c-.17-.11-.15-.43-.07-.62C122.53,151.47,122.57,152.2,122.21,152.17ZM123.26,178c-.39,0-.27-.73-.07-.86C123.53,177.24,123.29,177.72,123.26,178Zm.06-2c-.37-.13-.48-1.25-.06-1.42C123.61,174.72,123.6,175.8,123.32,176Zm-.13-6.79c.36,0,.28.6.13.74C123,169.92,123.09,169.43,123.19,169.22Zm.13-.19c-.66-.41-.4-1.7-.13-2.35h.19A3,3,0,0,1,123.32,169Zm1.17,16.8c-.25-.08-.2-.58-.12-.81C124.56,185.11,124.61,185.65,124.49,185.83Zm1.17-18.78a.66.66,0,0,1-.06.68C125.29,167.67,125.13,167,125.66,167.05Zm-.06,2.84a.44.44,0,0,1,0-.55C125.87,169.38,125.94,169.88,125.6,169.89Zm.25-17.66c-.26,0-.28-.24-.19-.43C126,151.76,125.92,152.06,125.85,152.23Zm.93,27c-.11-.06-.22-.12-.19-.31A.18.18,0,0,1,126.78,179.22Zm.06-27.05c-.26,0-.19-.34-.13-.5h.19C127,151.77,127,152.16,126.84,152.17ZM128,183.3c-.34-.06-.3-.79-.12-1C128.08,182.43,127.89,183,128,183.3Zm0-3.77c-.46,0-.52-.89.06-.81C128.22,178.94,128.07,179.31,128,179.53ZM128,176c-.42-.08-.32-.64-.06-.81l.25.13A.88.88,0,0,1,128,176Zm1.05-1.79a1,1,0,0,1,.06,1.66C128.6,175.63,128.66,174.44,129.06,174.16Zm-.06,9.38a4.81,4.81,0,0,1,.06-1.6c.34.39,1.18.39,1.11.92S129.41,183.33,129,183.54Zm1.36-8.09c-.31,0-.37-.17-.56-.24.1-.28.18-.57.5-.62C130.45,174.76,130.59,175.26,130.36,175.45Zm.92,9.82c-.36-.15-.13-.89-.06-1.17h.19A1,1,0,0,1,131.28,185.27Zm.13-12a.33.33,0,1,1,.18-.62A.42.42,0,0,1,131.41,173.29Zm1.11-1.42c.33.09.3.52.49.74,0,.3-.24.41-.31.74-.16.88.43,2.16-.24,2.53-.27-.57.08-1.18,0-1.85S131.75,172.55,132.52,171.87Zm.18,11.67c.07.51.29,1-.12,1.42a5.41,5.41,0,0,1-.06-3.58C133.16,181.55,132.59,182.7,132.7,183.54Zm2.23,1.11c-.5,0-.39-.71-.19-1C135.17,183.73,135.17,184.4,134.93,184.65Zm-.19-1.79c.2,0,.23.38.13.5A.35.35,0,0,1,134.74,182.86Zm.07-2.9c-.3-.12-.39-.44-.62-.62-.68,0-1.32-.19-1.61.25-.69-.5-.06-2-.06-3,.41.35-.05,1.57.62,1.66.24,0,.34-.23.62-.24s.16.41.37.49c.38,0,.43-.31.68-.43a1.56,1.56,0,0,1,.61.68A3.61,3.61,0,0,1,134.81,180Zm1.23,4.65c0-.13,0-.27,0-.39.15,0,.22.16.25.33Zm.12-1.25c-.23-.08-.21-.46-.06-.62C136.42,182.71,136.3,183.29,136.16,183.36Zm0-1.05c-.4-.17-.35-.95-.06-1.18C136.41,181.28,136.31,182.07,136.16,182.31ZM137.4,180c-.36-.09-.35-.55-.68-.68-.36.28-.2,1.07-.68,1.24-.29-.41-.08-1.33-.43-1.67a1.11,1.11,0,0,1,.55-.8c.3.16.3.61.56.8.24,0,.28-.21.55-.19C137.86,178.77,137.62,179.64,137.4,180Zm1,2.1c0-.14-.12-.43,0-.55S138.76,182.09,138.45,182.06Zm0-1.67c-.56-.31-.31-1.72-.06-2.16.36,0,.47.31.61.56,0,.26-.24.33-.3.55S138.85,180.35,138.45,180.39Zm1.3,3c-.41-.19-.4-1.22-.13-1.55C140.06,182,139.75,182.88,139.75,183.36Zm-.07-3.83a.79.79,0,0,1-.06-1.42C140.42,178.22,140.05,179.23,139.68,179.53Zm1-28.9c.15.22.45.92.07,1.11C140.35,151.65,140.59,150.85,140.73,150.63Zm0,27.85h.19c0,.17.09.16.06.31C140.75,178.83,140.71,178.69,140.73,178.48Zm.19,4.88c-.23,0-.12-.38-.06-.43C141.13,182.88,141.06,183.31,140.92,183.36Zm14.82-16.68c.26-.06.3.26.19.37h-.19C155.62,166.94,155.72,166.83,155.74,166.68Zm0,3.65c.28-.06.2.44.12.55S155.66,170.51,155.74,170.33Zm-1.3.12c.33,0,.39.47.19.62S154.33,170.63,154.44,170.45Zm.07-1.36c.16,0,.12.12.24.13.07.35-.12.44-.18.67C154.25,169.8,154.27,169.26,154.51,169.09Zm-.07,3.15h.13c.36,0,.29.71.06.8S154.39,172.5,154.44,172.24Zm.19-4.88c-.38-.21-.31-1.41-.12-1.79A1.76,1.76,0,0,1,154.63,167.36Zm-.19-3.58c.29,0,.32.61.13.74C154.37,164.43,154.46,164.05,154.44,163.78Zm.07-1.42c.23-.05.11.38.06.43C154.36,162.76,154.47,162.49,154.51,162.36Zm0-5.06c.22,0,.1.41.06.55C154.26,157.88,154.38,157.36,154.51,157.3Zm-.07,1.48c.42.06.24.86.13,1.11C154.11,159.79,154.4,159.1,154.44,158.78Zm-1.73,12c.07.3-.22.56-.3.86C151.59,171.25,152.51,169.83,152.71,170.82Zm-.3,2.35c-.51-.1-.24-.73-.07-1C152.68,172.34,152.6,172.92,152.41,173.17Zm-.07-3.65c-.34,0-.13-.54-.12-.74C152.52,168.74,152.57,169.43,152.34,169.52Zm-.18-3.89c.16,0,.2.09.18.25S152.14,165.79,152.16,165.63Zm.18-1.11h-.18v-.18h.18Zm-3.52,14a.22.22,0,1,1-.06.43A.3.3,0,0,1,148.82,178.54Zm-2.22-11.18c-.33,0-.25-.54-.12-.74h.18A.83.83,0,0,1,146.6,167.36Zm-.18-10.43c-.13-.13,0-.36,0-.5h.18C146.73,156.59,146.67,157,146.42,156.93Zm0-3.77c.13.05.18.34-.07.31A.36.36,0,0,1,146.42,153.16Zm.55,17.78c0,.37-.4.38-.43.74C145.74,171.42,146.57,170,147,170.94Zm-.37,1.86c-.54,0-.31-.5-.25-.81C146.74,172,146.64,172.48,146.6,172.8Zm-3.27-1.67c-.11,0-.13.07-.25.06s0-.23,0-.37h.19A.41.41,0,0,1,143.33,171.13ZM142,158.28c.22-.06.11.27.06.31S142,158.37,142,158.28Zm0,8.4h.18a.45.45,0,0,1-.06.56C141.87,167.15,141.92,166.92,142,166.68Zm.18,12c0,.17,0,.27-.18.25a.27.27,0,0,1-.06-.19A.4.4,0,0,1,142.15,178.66Zm.17,4.34-.38.11a.93.93,0,0,1,0-.93C142.29,182.18,142.41,182.68,142.32,183Zm.7-13.54a.2.2,0,0,1,.06.31C142.92,169.76,142.93,169.54,143,169.46ZM143,182.79a3.06,3.06,0,0,1,.17-.61.59.59,0,0,1,.27.47Zm1.53-4.31c.12.12,0,.35,0,.49-.21.05-.26-.07-.37-.12C144.14,178.61,144.21,178.43,144.5,178.48Zm-.2,3.88a.75.75,0,0,1,.08-.18c.1,0,.1.06.18.07h0Zm2.42-1c-.45-.18-.34-.93-.61-1.3a3.66,3.66,0,0,0,.37-.61c0-.29-.18-.4-.25-.62.07-.72.71-.53,1.05-.19-.11.32-.39.48-.49.81C147.11,180.11,146.82,180.68,146.72,181.38Zm.62-10.5c.2-.1.44-.08.37.25C147.49,171.15,147.29,171.14,147.34,170.88Zm.37,8c-.16,0-.2-.09-.18-.25h.24C147.8,178.73,147.73,178.76,147.71,178.85Zm1.11,1.73a.54.54,0,0,1,0-.74C149.21,179.87,149.22,180.56,148.82,180.58Zm1.12-11.06c-.09,0-.06-.15-.07-.24C150.09,169.22,150,169.48,149.94,169.52Zm0,10.64c0-.14.07-.19.07-.32s.17.09.18.22Zm0-1.5c-.1-.28,0-.42.06-.68C150.31,178,150.37,178.75,149.94,178.66Zm2.1-20c.26,0,.23.55.06.62C151.85,159.1,151.92,158.86,152,158.65Zm0,15.75c.22-1,1.29.55.43,1A1,1,0,0,1,152,174.4Zm.43,2.23c-.28,0-.27-.42-.19-.62h.19C152.46,176.32,152.55,176.36,152.47,176.63Zm.08,2.32h0c-.47-.22-.51-1.51-.05-1.78C152.9,177.38,152.9,178.64,152.55,179Zm2.14-1.1h0a.72.72,0,0,1-.43-.74C154.6,176.63,154.89,177.44,154.69,177.85Zm-.06-2c-.33-.1-.38-.48-.68-.61s-.24.08-.37.12c-.43,0-.5-.8-.12-.93.14-.14.2.12.43.06s.38-.36.62-.49A1.23,1.23,0,0,1,154.63,175.82Zm1.23-.24a.39.39,0,0,1-.18-.75C156.27,174.58,156.28,175.53,155.86,175.58Zm2.29.12c-.4-.21-.19-.71,0-1-.13-.8,0-1.52-.06-2.35h.18c.21.28.08.62.06,1C158.3,174.41,158.79,175.42,158.15,175.7Zm1.48-3.27c0,.35-.06.67-.37.74C158.9,172.9,159.24,172.07,159.63,172.43Zm-.07,2.58-.18.11a1.68,1.68,0,0,1-.06-1.09C159.77,174,159.78,174.7,159.56,175Zm.81-8.33c0-.22-.13-.6,0-.8h.19C160.7,166.09,160.72,166.63,160.37,166.68Zm1.36,6.24c-.43-.17,0-.86-.12-1.3C162,171.7,161.87,172.66,161.73,172.92Zm-.06-6.48c-.39,0-.3-.82.12-.75C162,165.92,161.94,166.33,161.67,166.44Zm4.63-7.35c.32-.05.3.49.19.68a.42.42,0,0,1-.31,0A.59.59,0,0,1,166.3,159.09Zm.25,10.43c-.41-.17-.43-1-.25-1.42C166.91,168.14,166.77,169.16,166.55,169.52Zm1-2.22c-.43,0-.38-.82-.06-.93C167.83,166.44,167.89,167.18,167.6,167.3Zm1.05-7.16c-.66-.13-.18-1-.31-1.67C168.91,158.61,168.72,159.73,168.65,160.14Zm2-2.78c.1,0,.1,0,.18.06,0,.25-.06.35-.06.55C170.53,158,170.63,157.53,170.69,157.36Zm.12-1.55v.5C170.51,156.35,170.61,155.81,170.81,155.81Zm1.11,2.91h.19c0,.1.07.36-.06.37S172,158.84,171.92,158.72Zm.25,1.42c-.25.05-.22-.34-.12-.44S172.12,160,172.17,160.14Zm7-4.2a.41.41,0,0,1,.14.1l-.31.44A1.64,1.64,0,0,1,179.15,155.94Zm-3.52,3.89c.3,0,.23.3.24.55C175.53,160.46,175.65,160.08,175.63,159.83Zm0-.44a.86.86,0,0,1,0-.67C175.93,158.67,175.88,159.43,175.63,159.39Zm-.06-1.66a1.54,1.54,0,0,1,0-.74C175.84,157,175.84,157.73,175.57,157.73Zm-.07-1.92c.3-.09.16.26.19.44C175.44,156.29,175.51,156,175.5,155.81Zm-2.34,1.67c.25-.07.24.43.06.43S173.06,157.61,173.16,157.48Zm-1.18-2.9c.32,0,.31.55.13.68C171.75,155.21,171.76,154.74,172,154.58Zm-1,5.8c-.44-.35-.32-1.28-.25-1.85C171.3,158.88,171,159.71,171,160.38Zm-.19-5.18c-.36,0-.14-.55,0-.62S171,155.18,170.81,155.2Z"/><path class="a" d="M142.28,50.39c.14-.11.23-.28.37-.4l-.77-.24A.66.66,0,0,0,142.28,50.39Z"/><path class="a" d="M83.36,57.06h0a2.11,2.11,0,0,0-.27,1l.61-.39A.79.79,0,0,0,83.36,57.06Z"/><path class="a" d="M84.9,56.81a1.4,1.4,0,0,0-.16-.63l-.19.12a6.11,6.11,0,0,0-.06.86l.42-.26A.28.28,0,0,0,84.9,56.81Z"/><path class="a" d="M95.4,51a1.4,1.4,0,0,0-.25.82l.55-.23A.64.64,0,0,0,95.4,51Z"/><path class="a" d="M93.16,51.72l-.27.12a2.7,2.7,0,0,1,0,.28A1,1,0,0,0,93.16,51.72Z"/><path class="a" d="M71.69,67.25c.09,0,.13-.46-.06-.37S71.46,67.31,71.69,67.25Z"/><path class="a" d="M72.92,66.08s0,0,0,0l0,0Z"/><path class="a" d="M74.22,64.84a.45.45,0,0,0,0-.7l-.42.38a.66.66,0,0,0,0,.14C74,64.69,74,64.9,74.22,64.84Z"/><path class="a" d="M61.18,80.29l-.42.71a.36.36,0,0,0,.13.24l.3-.52A1,1,0,0,0,61.18,80.29Z"/><path class="a" d="M106.7,48.23h-.18v.05l.18,0Z"/><path class="a" d="M145.24,50.21c-.08,0-.08-.08-.18-.07v.31C145.22,50.47,145.22,50.32,145.24,50.21Z"/><path class="a" d="M149.81,52.37a.46.46,0,0,0,.06-.74h-.24C149.53,51.92,149.43,52.3,149.81,52.37Z"/><path class="a" d="M144.13,50.08a1.85,1.85,0,0,0,.15-.7l-.6-.2c0,.31.08.62.08.9a2.45,2.45,0,0,1,0,.27l.49.16A3.45,3.45,0,0,0,144.13,50.08Z"/><path class="a" d="M143,49l-.16,0,.16,0Z"/><path class="a" d="M151,52.31h-.25c-.09.19,0,.27.06.43C151,52.75,151.11,52.44,151,52.31Z"/><path class="a" d="M135.18,48h-.38l.35.07A.26.26,0,0,1,135.18,48Z"/><path class="a" d="M141.93,48.63l-.33-.09a3.42,3.42,0,0,1-.15,1.09l.43.12A7.16,7.16,0,0,1,141.93,48.63Z"/><path class="a" d="M142.83,49.9a.51.51,0,0,0-.18.09l.44.15A.37.37,0,0,0,142.83,49.9Z"/><path class="a" d="M182.91,83.12c.25-.11.11-.71-.12-.74a.73.73,0,0,0-.09.36l.21.38Z"/><path class="a" d="M170.13,65.71a.74.74,0,0,0-.15.56l.38.37C170.56,66.34,170.56,65.74,170.13,65.71Z"/><path class="a" d="M168,63.11h0l-.27-.24C167.73,63,167.79,63.12,168,63.11Z"/><path class="a" d="M152,53.29a.37.37,0,0,0-.19.33l.22.11A.42.42,0,0,0,152,53.29Z"/><path class="a" d="M182.73,85.84c-.21.59-.61,1.56-.06,2C183.23,87.77,183.2,86,182.73,85.84Z"/><path class="a" d="M183.28,128.08h-.18c-.07.28-.16.46,0,.68C183.39,128.78,183.4,128.27,183.28,128.08Z"/><path class="a" d="M183.35,132.9a.65.65,0,0,0-.13-.86C182.88,132.17,182.93,132.88,183.35,132.9Z"/><path class="a" d="M180.82,115.48c.18,0,.19-.5-.07-.43C180.66,115.18,180.54,115.46,180.82,115.48Z"/><path class="a" d="M183.16,131.85c.43-.2.26-1.45,0-1.73C183.06,130.79,183.28,131.11,183.16,131.85Z"/><path class="a" d="M183.1,121.54a1.52,1.52,0,0,0,0,.92C183.41,122.42,183.48,121.56,183.1,121.54Z"/><path class="a" d="M174.89,101.34a.72.72,0,0,0,.12,1.11c.16-.09.2-.29.49-.24s.35.52.74.55c.11-.32.26-.6.37-.92-.56-.33,0-1.36-.55-1.73-.41.41.17,1.43-.62,1.48C175.2,101.58,175.09,101.2,174.89,101.34Z"/><path class="a" d="M176.24,87.45c-.19,0-.13-.19-.37-.13s-.08.25,0,.43C176.15,87.8,176.22,87.65,176.24,87.45Z"/><path class="a" d="M175,87.63c.43-.41,0-1.23-.31-1.54C174.76,86.51,174.23,87.59,175,87.63Z"/><path class="a" d="M177.42,118.33c.24-.28.38-1.09-.06-1.24A1.05,1.05,0,0,0,177.42,118.33Z"/><path class="a" d="M177.05,87.14c-.38.1-.38.66,0,.68S177.51,87,177.05,87.14Z"/><path class="a" d="M177.23,101.09a3.14,3.14,0,0,0-.43.68c.41.45,0,1.32.37,1.8.69-.16.28-.77.25-1.24S177.7,101.22,177.23,101.09Z"/><path class="a" d="M174.82,92.33v.18C175,92.6,175,92.23,174.82,92.33Z"/><path class="a" d="M143,104.49h-.19v.31C143,104.83,143,104.67,143,104.49Z"/><path class="a" d="M142.9,117.15c.15-.28.37-.85.12-1.17C142.34,115.92,142.59,117,142.9,117.15Z"/><path class="a" d="M140.55,86.52c-.43.07-.19.65-.06.86C140.85,87.42,141,86.53,140.55,86.52Z"/><path class="a" d="M141.72,86.46h-.18c-.13.11,0,.29,0,.43C141.77,86.91,141.85,86.61,141.72,86.46Z"/><path class="a" d="M142.83,118.14c.17,0,.21-.09.19-.25h-.19Z"/><path class="a" d="M146.29,145.31c.28-.21.13-.72.13-1.11h-.19C146.21,144.64,146.3,145.07,146.29,145.31Z"/><path class="a" d="M157.78,120.61c.08-.16.15-.74-.12-.74C157.5,120,157.44,120.6,157.78,120.61Z"/><path class="a" d="M155.06,84.11c-.11.3-.09.83.19.93C155.44,84.81,155.45,84.12,155.06,84.11Z"/><path class="a" d="M155.12,87.26c.41,0,.41-.85.07-.93A.69.69,0,0,0,155.12,87.26Z"/><path class="a" d="M165.68,97.08a.64.64,0,0,0-.06.56C165.84,97.61,166,97.1,165.68,97.08Z"/><path class="a" d="M64.52,90.91c.18-.12.2-.65-.06-.68C64.36,90.37,64.36,90.84,64.52,90.91Z"/><path class="a" d="M155.25,116.91c0,.2-.17.47.18.43C155.42,117.14,155.49,116.87,155.25,116.91Z"/><path class="a" d="M152.9,102.08c-.09.19-.05.46.25.44C153.19,102.28,153.22,102.08,152.9,102.08Z"/><path class="a" d="M154.26,117a2.68,2.68,0,0,0-.06,1.79C154.71,118.55,154.62,117.41,154.26,117Z"/><path class="a" d="M156.3,86.58c-.2.21-.16.73.12.8C156.7,87.26,156.61,86.64,156.3,86.58Z"/><path class="a" d="M160.13,84s-.06-.07-.13-.06,0,.4-.06.61A.38.38,0,0,0,160.13,84Z"/><path class="a" d="M165.81,95c-.29-.05-.24.53,0,.5Z"/><path class="a" d="M138.32,118.88c.54,0,.47-1.14.07-1.23C138,117.88,138.18,118.5,138.32,118.88Z"/><path class="a" d="M157.66,117.28c0,.11-.2.55.06.55C157.8,117.78,157.87,117.23,157.66,117.28Z"/><path class="a" d="M157.78,130.31a.54.54,0,0,0,0-.43h-.25C157.44,130.07,157.48,130.34,157.78,130.31Z"/><path class="a" d="M134.74,150v0h0Z"/><path class="a" d="M136,147a7.26,7.26,0,0,0-.23,3h.4A5.71,5.71,0,0,0,136,147Z"/><path class="a" d="M134.25,148.77c.26,0,.29.33.56.37a1.54,1.54,0,0,0-.07-1.17c-1.19.16-.89-1-1-1.79,0-.05-.06-.07-.13-.06a7.59,7.59,0,0,0,.08,3.85h.07C133.86,149.49,133.77,148.84,134.25,148.77Z"/><path class="a" d="M146.35,149.64a1.14,1.14,0,0,0-.12.33h.47A.33.33,0,0,0,146.35,149.64Z"/><path class="a" d="M129.06,148.71c0-.24.18-.52.19-.8a8.2,8.2,0,0,0-.31-2.41c-.1.47-.24.91-.37,1.36.58.57,0,2.28.12,2.9a.63.63,0,0,0,.13.21h.46A3.66,3.66,0,0,0,129.06,148.71Z"/><path class="a" d="M142,149.33c-.12,0-.14-.07-.25-.06a1,1,0,0,0-.21.7h.61A1.67,1.67,0,0,0,142,149.33Z"/><path class="a" d="M140.61,149.08a1.48,1.48,0,0,0,0,.89H141C141,149.57,141,149.16,140.61,149.08Z"/><path class="a" d="M170.87,149.82h-.18V150h.22A1.55,1.55,0,0,0,170.87,149.82Z"/><path class="a" d="M103.74,149.58a.36.36,0,0,0,0,.39h.16C104,149.84,104,149.52,103.74,149.58Z"/><path class="a" d="M87.56,148.71a19.49,19.49,0,0,0,0-3.15h-.19c-.32.91,0,2.47-.18,3.64,0,.25-.12.52-.17.77h.7C87.73,149.53,87.58,149.07,87.56,148.71Z"/><path class="a" d="M118.62,150h.09C119.44,148.89,117.69,149.51,118.62,150Z"/><path class="a" d="M83.73,148.71c-.22.13-.31.39-.62.43s-.33-.28-.61-.31a1.56,1.56,0,0,0,.12,1c.25,0,.34-.11.62-.06a.4.4,0,0,1,.19.15h.62A1.49,1.49,0,0,0,83.73,148.71Z"/><path class="a" d="M107.26,149.27a1.06,1.06,0,0,0-.13.7h.37C107.61,149.71,107.55,149.31,107.26,149.27Z"/><path class="a" d="M118,149.58c-.26-.46-.77-.39-.93.12a.51.51,0,0,0,.25.27h.51A.44.44,0,0,0,118,149.58Z"/><path class="a" d="M119.92,137.47c-.11.07-.23.46.06.43C120,137.77,120.13,137.5,119.92,137.47Z"/><path class="a" d="M119.92,149.76c.25-.07.25-.66-.06-.68S119.53,149.75,119.92,149.76Z"/><path class="a" d="M115.94,150h.71a1.41,1.41,0,0,0,.24-.39c-.44-.34.21-1.39-.49-1.42-.29.26-.25.85-.55,1.11-.16.11-.38-.13-.56,0a.52.52,0,0,0,0,.7h.16A.71.71,0,0,1,115.94,150Z"/><path class="a" d="M71.75,150a0,0,0,0,1,0,0h.05Z"/><path class="a" d="M121.22,100.48a2.93,2.93,0,0,0-.06,2.59C121.59,102.59,121.82,100.91,121.22,100.48Z"/><path class="a" d="M123.5,102.58c0-.53.08-.89.13-1.61C123,101.05,123.19,102.28,123.5,102.58Z"/><path class="a" d="M122.08,147.66c.21,0,.26-.36.06-.37A.52.52,0,0,0,122.08,147.66Z"/><path class="a" d="M122.45,101.28c-.46-.07-.32.68.07.62A.68.68,0,0,0,122.45,101.28Z"/><path class="a" d="M121.16,104.49c.19.1.19-.4,0-.31Z"/><path class="a" d="M120,148.53c.06-.09.18-.64-.06-.62C119.84,148,119.78,148.51,120,148.53Z"/><path class="a" d="M138.2,86.83v.37c.17,0,.18-.15.19-.31C138.31,86.89,138.3,86.81,138.2,86.83Z"/><path class="a" d="M135.79,86.7c-.2.25-.16.94.13,1C136.1,87.57,136.44,86.65,135.79,86.7Z"/><path class="a" d="M134.62,86.09c-.78.47-.19,1.52.06,2.16C135.15,87.89,135.21,86.29,134.62,86.09Z"/><path class="a" d="M136,127.28c.4,0,.31-1,0-1A2.07,2.07,0,0,0,136,127.28Z"/><path class="a" d="M137.15,119.62a1.57,1.57,0,0,0-.06-1.91c-.17.16-.24.42-.56.43s-.22-.35-.55-.31c0,.07,0,.19,0,.33h-3.16a1.31,1.31,0,0,0-.26-.89,6.62,6.62,0,0,1-.15.89h-9.84a.46.46,0,0,0-.52.52l0,24.93a.46.46,0,0,0,.52.52h10.95c-.06.47-.07.91.31,1.17a3.05,3.05,0,0,0,.07-1.17h2.22a.5.5,0,0,0,.35-.15.45.45,0,0,0,.17-.37v-4.43a.48.48,0,0,0-.17-.37.53.53,0,0,0-.36-.15h-8.59v-4.8h6.59a.46.46,0,0,0,.52-.52v-4.43a.46.46,0,0,0-.52-.52H127.5v-.53a.45.45,0,0,0,.34.14c.58-.65.19-1.17-.34-.76v-3.62h.26a.78.78,0,0,0,.2.68c0-.2.09-.43.13-.68h8a.52.52,0,0,0,.35-.15.48.48,0,0,0,.17-.37v-4.39C136.75,119.06,136.84,119.45,137.15,119.62Z"/><path class="a" d="M137.46,127.16c0-.12,0-.27-.19-.25C137.14,127.08,137.25,127.3,137.46,127.16Z"/><path class="a" d="M127.7,145.75c.29.07.38-.59.06-.56C127.63,145.34,127.49,145.59,127.7,145.75Z"/><path class="a" d="M131.35,98.07c-.14.08-.26.7.06.68S131.56,98.12,131.35,98.07Z"/><path class="a" d="M57.36,88c-.08.17-.16.35-.23.53C57.3,88.56,57.41,88.23,57.36,88Z"/><path class="a" d="M130.17,137.66v-.5C129.89,137.11,129.94,137.69,130.17,137.66Z"/><path class="a" d="M131.28,148.16c.28.07.28-.63,0-.56C131.24,147.75,131.16,148,131.28,148.16Z"/><path class="a" d="M130.17,86.4s-.17.48.06.43S130.45,86.35,130.17,86.4Z"/><path class="a" d="M182.17,134.38c.09-.1.15-.55-.12-.49S182,134.36,182.17,134.38Z"/><path class="a" d="M181.06,133.27c.24,0,.3-.19.5-.25.19.1.3.28.55.31.19-.34.45-.61.37-1-.15-.79-.67-.16-1,.18-.28-.13-.57-.24-.8,0A.64.64,0,0,0,181.06,133.27Z"/><path class="a" d="M182.67,135.68c-.17-.83-1.08-.14-.5.37C182.48,136.07,182.5,135.8,182.67,135.68Z"/><path class="a" d="M180.2,132.59a.41.41,0,0,0-.56-.43C179,132.52,180.08,133.39,180.2,132.59Z"/><path class="a" d="M180.69,103.19a.24.24,0,0,0-.06-.37C180.52,102.9,180.4,103.22,180.69,103.19Z"/><path class="a" d="M179.77,103c-.05-.16-.2-.22-.44-.19s-.1.52.13.5C179.52,103.35,179.82,103.18,179.77,103Z"/><path class="a" d="M180.51,87.2c-.12.21,0,.3,0,.55.34.11.27-.42.18-.55Z"/><path class="a" d="M182.79,89h-.18c-.08.19-.08.54.18.56A.68.68,0,0,0,182.79,89Z"/><path class="a" d="M183.9,88.5c-.08.18-.28.74.06.8s.22-.57.13-.8Z"/><path class="a" d="M184.46,132.22c-.07.21-.22.46,0,.62.18,0,.21-.12.31-.19C184.77,132.41,184.73,132.19,184.46,132.22Z"/><path class="a" d="M188.9,124.44c.19.09.19-.28,0-.19Z"/><path class="a" d="M183,135.68c.11.15.15.38.49.31C183.62,135.33,183.1,135.13,183,135.68Z"/><path class="a" d="M184,87.82c.18,0,.4-.39.5-.62-.14-.23-.13-.61-.43-.68C183.67,86.6,183.54,87.71,184,87.82Z"/><path class="a" d="M183,114.74c-.21.27-.3,1.06,0,1.3C183.57,116,183.36,114.88,183,114.74Z"/><path class="a" d="M176.49,132.78c.24-.19.2-.6-.25-.56A.36.36,0,0,0,176.49,132.78Z"/><path class="a" d="M175.57,144.57a2.32,2.32,0,0,0,.06-.52.59.59,0,0,0,.19-.13.52.52,0,0,0,.15-.35l0-24.93a.46.46,0,0,0-.53-.52H171a.52.52,0,0,0-.35.15.48.48,0,0,0-.17.37l0,14.7-.18-.41-4.93-14.28c-.13-.35-.31-.52-.56-.52h-5.44a.46.46,0,0,0-.52.52l0,13.55a1.06,1.06,0,0,0-.47.63c.11.34.3.43.47.38v10.37a.49.49,0,0,0,.05.2c-.22.27-.39.94.08,1,.2-.07.34-.44.31-.73l.09,0H160a.58.58,0,0,0,.23.4c.27,0,.27-.3.62-.25a2,2,0,0,1,.49,1.86c.68,0,0-1,.68-1.05.43.16.27.92.74,1.05,0-.63.24-1.44,0-2h1.12a.5.5,0,0,0,.36-.16.51.51,0,0,0,.16-.36V131.12l4.55,12.46a1,1,0,0,0,.26.35.64.64,0,0,0,.42.17H173a1.08,1.08,0,0,0,0,.73c.32,0,.43-.64.11-.73h2.28A.54.54,0,0,0,175.57,144.57Z"/><path class="a" d="M176.43,124.87c-.36-.08-.37.42-.25.62C176.47,125.47,176.55,125.12,176.43,124.87Z"/><path class="a" d="M188.84,116.53c0-.7.76-2.26,0-2.47C188.38,114.77,188.92,115.64,188.84,116.53Z"/><path class="a" d="M178.9,132.59c0-.11-.07-.13-.06-.24h-.25C178.51,132.62,178.75,132.74,178.9,132.59Z"/><path class="a" d="M178.34,85.84h-.18c-.09.1-.14.55.12.49S178.41,86,178.34,85.84Z"/><path class="a" d="M177.42,116.16a1.06,1.06,0,0,0,0-1.11c-.35,0-.36.34-.68.37-.31-.28-.32-.87-.68-1.11-.41.13-.14.93-.68.93-.32-.1-.08-.75-.31-.93h-.18c-.15.4-.19.89-.37,1.24a1.24,1.24,0,0,0,.43.55c.3,0,.32-.3.62-.31.55.19.37,1.11.49,1.73.53-.43-.08-1.66.74-1.85C177,115.81,177.1,116.12,177.42,116.16Z"/><path class="a" d="M178.22,89.18c0,.12-.1.42.12.37C178.31,89.42,178.44,89.12,178.22,89.18Z"/><path class="a" d="M178.47,84.48a.27.27,0,0,1-.19-.06.41.41,0,0,0-.06.31C178.43,84.77,178.45,84.63,178.47,84.48Z"/><path class="a" d="M177.54,132.9c1-.56-.56-1.3-.37-.31C177.2,132.73,177.33,132.82,177.54,132.9Z"/><path class="a" d="M178.28,87.26h-.18a.36.36,0,0,0,0,.49C178.33,87.77,178.41,87.42,178.28,87.26Z"/><path class="a" d="M186.56,120.49c-.1.12-.11.51.12.49C186.66,120.79,186.75,120.5,186.56,120.49Z"/><path class="a" d="M70.33,84.17a1.22,1.22,0,0,1,0-.33H70C70,84.05,70.12,84.19,70.33,84.17Z"/><path class="a" d="M69,84.24c.35-.07.45-.21.44-.4h-.67A.44.44,0,0,0,69,84.24Z"/><path class="a" d="M71.44,84a.19.19,0,0,0,.2-.15h-.18A.17.17,0,0,0,71.44,84Z"/><path class="a" d="M188.84,121.29a1.72,1.72,0,0,0,.13,1.85C189.31,122.8,189.37,121.47,188.84,121.29Z"/><path class="a" d="M191.06,104.92c0-.26-.09-.52-.13-.78C190.77,104.36,190.78,104.85,191.06,104.92Z"/><path class="a" d="M186.19,88.5c-.14.14-.2.6,0,.74C186.55,89.27,186.52,88.48,186.19,88.5Z"/><path class="a" d="M147.53,138.27c0-.14.12-.42,0-.55h-.19C147.19,137.93,147.22,138.23,147.53,138.27Z"/><path class="a" d="M79.65,84.05a1,1,0,0,0,.09-.21h-.27A.88.88,0,0,0,79.65,84.05Z"/><path class="a" d="M188.78,101.65a8.88,8.88,0,0,0-.06,3C189.17,104.12,189,102.32,188.78,101.65Z"/><path class="a" d="M184.64,87.26c0,.52.44.88.68.66l-.54-1.17A1.15,1.15,0,0,0,184.64,87.26Z"/><path class="a" d="M190,102.45a.08.08,0,0,0,0,0l-.12-.57h-.05C189.71,102,189.72,102.46,190,102.45Z"/><path class="a" d="M189.09,131.79c-.44.46-.1,1.09-.06,1.6s-.18,1,.25,1.05a.39.39,0,0,0,.1-.08l.15-.63a3.7,3.7,0,0,1,0-.58c0-.29.2-.48.19-.62A.93.93,0,0,0,189.09,131.79Z"/><path class="a" d="M111,84a.44.44,0,0,0,.1-.15h-.22C110.93,83.92,111,84,111,84Z"/><path class="a" d="M136,84.61a.85.85,0,0,0,.06-.77h-.19C135.7,84.07,135.62,84.6,136,84.61Z"/><path class="a" d="M161.05,84.3a2,2,0,0,0,.18-.46h-.4C160.79,84.05,160.82,84.25,161.05,84.3Z"/><path class="a" d="M188,121.91c-.17-.31-.46-.12-.5.18A.28.28,0,0,0,188,121.91Z"/><path class="a" d="M186.5,103.63a.75.75,0,0,0-.13-1.3C186.13,102.6,186.06,103.52,186.5,103.63Z"/><path class="a" d="M186.5,105.67c.16-.34.26-1.39-.13-1.55C186.18,104.43,186.13,105.51,186.5,105.67Z"/><path class="a" d="M186.62,116.23a2.31,2.31,0,0,0-.06-2C186.21,114.5,186.13,116,186.62,116.23Z"/><path class="a" d="M186.25,91.46c-.05.19-.26.5.06.56S186.4,91.51,186.25,91.46Z"/><path class="a" d="M186.5,101.71c.1-.26.2-.64-.13-.74C186.27,101.19,186.15,101.66,186.5,101.71Z"/><path class="a" d="M186.92,141.92c.08-.22.17-.44.25-.65a.94.94,0,0,0-.12-.22A6.06,6.06,0,0,0,186.92,141.92Z"/><path class="a" d="M188.78,105.48c-.09.16-.21.5.06.56S189.08,105.43,188.78,105.48Z"/><path class="a" d="M187.86,134c0,.13-.1.43.12.37S188.06,133.87,187.86,134Z"/><path class="a" d="M187.61,132.53a.78.78,0,0,0,.37.62C188.63,132.45,187.6,131.41,187.61,132.53Z"/><path class="a" d="M186.56,121.41a1.45,1.45,0,0,0,.12,1.61C187.28,122.75,187,121.63,186.56,121.41Z"/><path class="a" d="M186.5,118.94v.5C186.73,119.47,186.78,118.89,186.5,118.94Z"/><path class="a" d="M186.81,132.28c-.19.12-.37.5-.13.68C187.13,133,187.15,132.36,186.81,132.28Z"/><path class="a" d="M188.9,97.76c-.07,0-.08-.08-.18-.06-.16.73-.48,2,.12,2.47C189.17,99.49,188.87,98.55,188.9,97.76Z"/><path class="a" d="M164.33,86.09c-.15.34-.64,1.28.12,1.29C164.76,87.18,164.86,86.12,164.33,86.09Z"/><path class="a" d="M161.55,148v-.31h-.19C161.42,147.83,161.36,148.05,161.55,148Z"/><path class="a" d="M165.81,100.35h-.19a4.88,4.88,0,0,0-.06,2.54A2.64,2.64,0,0,0,165.81,100.35Z"/><path class="a" d="M166.18,149.64c0-.11.06-.31-.13-.25C166,149.53,166.07,149.62,166.18,149.64Z"/><path class="a" d="M165.5,86.64c-.44.33-.17,1-.12,1.61s-.22,1.74.3,2a9.78,9.78,0,0,0,.07-2.17C165.75,87.38,166.09,86.84,165.5,86.64Z"/><path class="a" d="M165.62,108c.09-.1.15-.55-.12-.49C165.52,107.71,165.43,108,165.62,108Z"/><path class="a" d="M165.75,106.22h-.19c-.06.19-.18.9.06,1A1.29,1.29,0,0,0,165.75,106.22Z"/><path class="a" d="M148.82,86.4c-.38-.77-1.09.29-.43.61C148.7,87,148.7,86.62,148.82,86.4Z"/><path class="a" d="M150.8,144.82c.22,0,.28-.46.19-.62h-.19C150.68,144.34,150.75,144.67,150.8,144.82Z"/><path class="a" d="M155.56,137.9c.14-.16,0-.42,0-.61h-.19C155.16,137.48,155.29,137.75,155.56,137.9Z"/><path class="a" d="M157.72,133.21A1.89,1.89,0,0,1,158,133a.75.75,0,0,0-.44-.8c-.46.38-1.1-.13-1.48.37-1.28-.5.42-2.51-.74-3a.57.57,0,0,0-.11.11v-8c0-.14,0-.3,0-.46a1,1,0,0,0-.36-.58l-.43-.43a1.48,1.48,0,0,0-.24-1,1.52,1.52,0,0,0-.19.59l-1.26-1.27a1.34,1.34,0,0,0-1-.37h-6.36c0-.09,0-.15-.18-.13a.28.28,0,0,1,0,.13H140a.5.5,0,0,0-.28.1.41.41,0,0,0-.17-.24c-.24.31-.45,1-.07,1.28l0,24.31a.51.51,0,0,0,.17.36.49.49,0,0,0,.35.16h2.85c0,.17.08.32.25.32a.38.38,0,0,0,.22-.32h1.11a.48.48,0,0,0,.37-.17.52.52,0,0,0,.15-.35v-9.08h1.71l.57,1.43a.64.64,0,0,0,.27.72,0,0,0,0,1,0,0l2.81,7a.91.91,0,0,0,.26.35.56.56,0,0,0,.41.17h.91a.12.12,0,0,0,0,.08.12.12,0,0,0,.16-.08h2.14c0,.16.06.31.23.33a.41.41,0,0,0,.21-.33h1.44c.2,0,.33-.05.38-.16a.45.45,0,0,0,0-.36l-3.81-9.37,1.21-1.19a.45.45,0,0,0,.27.3c.37-.1.41-.53.74-.68a2.55,2.55,0,0,1,.55.74A2.78,2.78,0,0,1,157.72,133.21Zm-8.05-4.83-.59.6a.36.36,0,0,1-.26.11h-3.91v-5.47h3.72a1.06,1.06,0,0,1,.26,0,.37.37,0,0,1,.22.13l.56.55a.56.56,0,0,1,.11.38v3.38A.38.38,0,0,1,149.67,128.38Zm5.21,4.21a.81.81,0,0,1-.31-.26l.32-.31a.89.89,0,0,0,.35-.65C155.35,131.85,155.37,132.31,154.88,132.59Z"/><path class="a" d="M154.2,137.84c.28,0,.42-.11.43-.37a.31.31,0,0,0-.31-.25C154.23,137.42,154.06,137.59,154.2,137.84Z"/><path class="a" d="M154.38,145.44c-.16.11-.34.74,0,.8C154.63,146.1,154.74,145.53,154.38,145.44Z"/><path class="a" d="M173.53,85.72c-.25.06-.33,1.48-.31,1.6a.86.86,0,0,0,.43.56C173.94,87.61,174.17,85.56,173.53,85.72Z"/><path class="a" d="M173.59,101.65c0,.19,0,.41.18.37C173.84,101.86,173.87,101.62,173.59,101.65Z"/><path class="a" d="M173.1,146c.08-.08.06-.26.06-.43H173C172.91,145.63,172.94,146,173.1,146Z"/><path class="a" d="M174,115.67c.35-.24.11-1.08-.25-1.17C173.46,114.74,173.37,115.73,174,115.67Z"/><path class="a" d="M173.71,104.62c.15-.18.28-.58,0-.68C173.57,104.08,173.4,104.53,173.71,104.62Z"/><path class="a" d="M171.49,115.3c0-.18,0-.31-.12-.37S171.16,115.36,171.49,115.3Z"/><path class="a" d="M172.29,85.16c-.16,1-.72,2.48.19,3.09a11.23,11.23,0,0,1,.49-1C172.64,86.63,172.73,85.63,172.29,85.16Z"/><path class="a" d="M170.87,101.46c-.18-.08-.21-.32-.55-.24a.44.44,0,0,0,.06.62c.45-.16.67,0,1,.18a1.22,1.22,0,0,0-.07-.86C171,101.09,171.09,101.43,170.87,101.46Z"/><path class="a" d="M172.54,117.28c-.1.11-.1.51.12.49C172.64,117.58,172.73,117.29,172.54,117.28Z"/><path class="a" d="M169.14,101a.82.82,0,0,0,.06,1.17C169.26,101.81,169.63,101.11,169.14,101Z"/><path class="a" d="M172.42,88.62a.24.24,0,0,0,.06.37C172.53,88.94,172.64,88.56,172.42,88.62Z"/><path class="a" d="M172.66,100.6h-.18c0,.42-.34,1.2.06,1.42C173.07,101.85,172.76,101,172.66,100.6Z"/><path class="a" d="M172.6,114.43a1,1,0,0,0,0,1.3A1.52,1.52,0,0,0,172.6,114.43Z"/><path class="a" d="M172.42,103.75c-.15.37,0,1,.24,1.11C172.79,104.51,172.7,103.89,172.42,103.75Z"/><path class="a" d="M155.37,120.73c.42,0,.4-.83.06-.92A.78.78,0,0,0,155.37,120.73Z"/><path class="a" d="M80.83,91.46c-.08.19-.28.74.06.8C81.09,92.14,81,91.54,80.83,91.46Z"/><path class="a" d="M71.38,95.6c.34.06.4-.45.12-.5C71.42,95.23,71.25,95.45,71.38,95.6Z"/><path class="a" d="M82.19,85.66H82c0,.23-.09.5.13.61C82.29,86.16,82.27,85.84,82.19,85.66Z"/><path class="a" d="M71.44,92.39c.31,0,.37-.52.25-.81H71.5A.94.94,0,0,0,71.44,92.39Z"/><path class="a" d="M70.27,148.4c.12.09.12.3.31.31s.17-.68-.07-.74A.68.68,0,0,0,70.27,148.4Z"/><path class="a" d="M71.38,98.62c.37-.16.43-1-.06-1.05C71.12,97.87,70.91,98.47,71.38,98.62Z"/><path class="a" d="M71.32,99.67a1,1,0,0,0,0,.75C71.64,100.4,71.67,99.67,71.32,99.67Z"/><path class="a" d="M78.54,101.77c-.18.17-.3.75.06.81C78.8,102.42,78.91,101.82,78.54,101.77Z"/><path class="a" d="M78.42,93.44c-.12.18-.25.68.12.68S78.84,93.35,78.42,93.44Z"/><path class="a" d="M66.68,113.45a.31.31,0,0,0-.18-.19c-.11.16-.25.29-.06.43A.22.22,0,0,0,66.68,113.45Z"/><path class="a" d="M76.2,85.22H76c0,.16,0,.27.19.25Z"/><path class="a" d="M78.48,108.94c.11-.16.22-.3.12-.5C78.28,108.32,78.28,108.91,78.48,108.94Z"/><path class="a" d="M78.6,105.3a.25.25,0,0,0-.06-.38A.27.27,0,0,0,78.6,105.3Z"/><path class="a" d="M70,113.82c.46-.12.25-.82,0-1A2.48,2.48,0,0,0,70,113.82Z"/><path class="a" d="M78.48,97.82a7.79,7.79,0,0,0,0,2.41c.63-.39,0-1.41.31-2.16C78.67,98,78.69,97.8,78.48,97.82Z"/><path class="a" d="M70.33,98.32a.81.81,0,0,0-.06-.93C69.82,97.39,69.7,98.42,70.33,98.32Z"/><path class="a" d="M68.78,118.39c.35,0,.22-.92-.06-.93C68.75,117.76,68.66,118.18,68.78,118.39Z"/><path class="a" d="M68.66,128.64c.28-.12.29-.8.19-1.11h-.19A3.75,3.75,0,0,0,68.66,128.64Z"/><path class="a" d="M68.6,126.85c.24,0,.31-.22.31-.5C68.7,125.86,68.25,126.61,68.6,126.85Z"/><path class="a" d="M67.24,148.77c.1-.42.11-1.13-.18-1.36C66.82,147.65,66.67,148.79,67.24,148.77Z"/><path class="a" d="M67.55,113.26c-.56.2,0,1.1-.06,1.42C67.73,114.41,68.12,113.42,67.55,113.26Z"/><path class="a" d="M67.55,135.68c-.55.08-.5,1.21-.25,1.54C67.77,137.12,67.62,136.13,67.55,135.68Z"/><path class="a" d="M70.08,99.37c-.19.2-.14.66.13.74C70.38,99.92,70.37,99.42,70.08,99.37Z"/><path class="a" d="M72.8,94.05c-.23,0-.18.28-.19.5C72.88,94.59,72.78,94.26,72.8,94.05Z"/><path class="a" d="M70.21,101.46c0-.12.09-.42-.13-.37C70.12,101.22,70,101.52,70.21,101.46Z"/><path class="a" d="M70.21,96.09c.37,0,.3-.86-.13-.8C70.05,95.52,69.89,96.05,70.21,96.09Z"/><path class="a" d="M68.85,113.82c.26-.08.25-.78,0-.87S68.45,113.82,68.85,113.82Z"/><path class="a" d="M68.91,98.25c.36.13.37-.33.25-.49h-.25A.82.82,0,0,0,68.91,98.25Z"/><path class="a" d="M70.27,90.53h-.13c-.11.65-.35,2.18.19,2.54C70.46,92.44,70.87,90.94,70.27,90.53Z"/><path class="a" d="M71.69,90.29H71.5c-.11.17-.11.66.13.68A.87.87,0,0,0,71.69,90.29Z"/><path class="a" d="M77.18,87.94v.31C77.37,88.25,77.44,87.89,77.18,87.94Z"/><path class="a" d="M78.54,115.67a.4.4,0,0,0-.06-.68c-.08.15-.22.23-.18.49C78.42,115.5,78.42,115.65,78.54,115.67Z"/><path class="a" d="M79.59,85.66a.48.48,0,0,0,0,.49C79.88,86.13,79.9,85.65,79.59,85.66Z"/><path class="a" d="M79.72,94.18c1.39-.32-.74-1.31,0,0Z"/><path class="a" d="M77.25,98.13c.19,0,.14-.46.06-.56h-.19C77,97.75,76.94,98.09,77.25,98.13Z"/><path class="a" d="M78.48,112.33c0,.41-.22,1,0,1.3C78.9,113.52,78.92,112.45,78.48,112.33Z"/><path class="a" d="M81.94,117.09c.13,0,0-.22.06-.31h-.18C81.84,116.9,81.73,117.15,81.94,117.09Z"/><path class="a" d="M80.33,93.81a.83.83,0,0,0,.56.43c.27-.1.39-.35.68-.43s.31.35.62.37c.37-.21.23-.85-.13-1-.27,0-.22.35-.49.37C81.15,92.89,80.56,93.12,80.33,93.81Z"/><path class="a" d="M81.82,123.88h-.19c-.08.25-.16.86.19.87C81.75,124.41,82,124.13,81.82,123.88Z"/><path class="a" d="M80.89,108.69c0-.11.17-.16.12-.37h-.18C80.86,108.43,80.75,108.68,80.89,108.69Z"/><path class="a" d="M81.45,150a1.74,1.74,0,0,0,.24-1C81.27,148.76,80.76,149.83,81.45,150Z"/><path class="a" d="M81.82,127.59c.07-.18,0-.28-.19-.31C81.64,127.44,81.64,127.6,81.82,127.59Z"/><path class="a" d="M81.69,125.06c-.09.21-.19.57.13.61,0-.2.1-.3.06-.55C81.8,125.12,81.79,125,81.69,125.06Z"/><path class="a" d="M75.89,93.93c.36.09.34-.23.24-.43C75.92,93.51,75.89,93.7,75.89,93.93Z"/><path class="a" d="M73.23,139.88c1.29-.33-.52-1.43,0,0Z"/><path class="a" d="M73.42,133.27a1.85,1.85,0,0,0,0,1.61C73.93,134.74,73.76,133.48,73.42,133.27Z"/><path class="a" d="M76.2,89.05c.24-.34.53-1.19-.07-1.36C75.66,87.81,75.74,89,76.2,89.05Z"/><path class="a" d="M73.35,136.42c-.13.17-.22.38-.06.56C73.58,137,73.62,136.46,73.35,136.42Z"/><path class="a" d="M71.93,136.54a.61.61,0,0,0,0,.56c.32.06.38-.37.25-.56Z"/><path class="a" d="M72.61,100.6V101C72.89,101,72.83,100.57,72.61,100.6Z"/><path class="a" d="M72.18,128.08c-.08.32-.21.71,0,1C72.73,129,72.53,128.24,72.18,128.08Z"/><path class="a" d="M72.68,98.62c.27-.15.28-1-.13-1C72.31,97.89,72.33,98.48,72.68,98.62Z"/><path class="a" d="M72.18,127.59c-.09.1-.13.49.13.43C72.26,127.88,72.42,127.54,72.18,127.59Z"/><path class="a" d="M75.08,88.5c.2-.07.2-.34.19-.62C74.78,87.4,74.58,88.43,75.08,88.5Z"/><path class="a" d="M74.28,93.75c-.2-.58-.91,0-.49.43C74.1,94.19,74.21,94,74.28,93.75Z"/><path class="a" d="M75.08,93.81a.23.23,0,0,0-.24-.25c0,.12-.07.14-.06.25A.22.22,0,0,0,75.08,93.81Z"/><path class="a" d="M73.48,126.91c.08.67-.5,1.79.12,2A2.07,2.07,0,0,0,73.48,126.91Z"/><path class="a" d="M75,112.71c.05-.16.11-.36-.12-.38S74.73,112.76,75,112.71Z"/><path class="a" d="M190,114.56c-.12.25-.1.82.19.86C190.53,115.28,190.33,114.62,190,114.56Z"/><path class="a" d="M56.93,112.21c.28,0,.18-.5.12-.68a.26.26,0,0,1-.18-.06C56.71,111.57,56.64,112.2,56.93,112.21Z"/><path class="a" d="M66.44,117.83h-.19c0,.14,0,.2.19.19Z"/><path class="a" d="M57,119.87c-.73-.07-.41,1.08-.31,1.67A2.16,2.16,0,0,0,57,119.87Z"/><path class="a" d="M56.56,124.87h.18v-.18h-.18Z"/><path class="a" d="M56.31,133.15c0,.12,0,.26.19.24C56.51,133.23,56.47,133.13,56.31,133.15Z"/><path class="a" d="M55.51,127.71c-.08,0-.09-.08-.19-.06-.08.55-.37,1.75-.12,2C55.8,129.43,55.45,128.31,55.51,127.71Z"/><path class="a" d="M55.51,115.86c0,.22-.06.54.06.67.27,0,.21-.52.12-.67Z"/><path class="a" d="M54,131.36c-.32.32-.53,1.53.07,1.73C54.33,132.79,54.43,131.56,54,131.36Z"/><path class="a" d="M55.07,137.9c.24,0,.26-.24.25-.49h-.25C55.05,137.63,55,137.71,55.07,137.9Z"/><path class="a" d="M55.14,134.38v.31c.19,0,.19-.13.18-.31Z"/><path class="a" d="M69.22,87V86.7h-.13V87Z"/><path class="a" d="M68.91,93.56h.18c0-.11.07-.31-.12-.25C69,93.4,68.88,93.43,68.91,93.56Z"/><path class="a" d="M56.37,129.44c.32-.51.32-1.32.68-1.79C56.36,126.33,55.69,128.87,56.37,129.44Z"/><path class="a" d="M57.79,91.21c-.58-.09-.24-1.11-.62-1.42,0,.85-.79,2.16-.06,2.78A3.86,3.86,0,0,0,57.79,91.21Z"/><path class="a" d="M64.46,86.64c-.07.17-.12.43.19.37C64.68,86.79,64.63,86.67,64.46,86.64Z"/><path class="a" d="M189.89,105.79c.08-.11.16-.61-.12-.56S189.48,105.81,189.89,105.79Z"/><path class="a" d="M67.3,134.69c.27,0,.24-.34.25-.62h-.19A1.7,1.7,0,0,0,67.3,134.69Z"/><path class="a" d="M67.43,127.4c0,.16-.12.19,0,.31S67.68,127.34,67.43,127.4Z"/><path class="a" d="M69.09,85.22c-.11.15,0,.5-.06.74C69.22,85.91,69.32,85.31,69.09,85.22Z"/><path class="a" d="M60.39,126c0-.18,0-.4-.19-.37C60.18,125.89,60.06,126.08,60.39,126Z"/><path class="a" d="M58.47,89.11c-.27,0-.16.29-.18.5C58.52,89.62,58.58,89.25,58.47,89.11Z"/><path class="a" d="M60.94,87.57h-.18a.6.6,0,0,0,0,.62C61,88.16,61.07,87.76,60.94,87.57Z"/><path class="a" d="M86.88,87.69c-.13.16,0,.51.12.56s0-.36.07-.56Z"/><path class="a" d="M64.09,112.89c0,.22-.15.67,0,.86C64.2,113.64,64.35,113,64.09,112.89Z"/><path class="a" d="M190.33,121.85h-.25c0,.15,0,.37.18.37S190.29,122,190.33,121.85Z"/><path class="a" d="M64.52,89a1.21,1.21,0,0,0,.07-.49H64.4C64.36,88.64,64.23,89,64.52,89Z"/><path class="a" d="M63.1,94.61c.1-.09.07-.28-.12-.25C63,94.5,63,94.6,63.1,94.61Z"/><path class="a" d="M62.49,134c-.11.12-.32.45,0,.49S62.67,134,62.49,134Z"/><path class="a" d="M63,90.53c-.36.08-.34.93.13.87C63.35,91.27,63.4,90.5,63,90.53Z"/><path class="a" d="M56.93,118.08a2.42,2.42,0,0,0-.06-1.92C56.62,116.55,56.54,117.79,56.93,118.08Z"/><path class="a" d="M60.69,90.29c-.16.34-.39,1.35.13,1.48C61,91.34,61.27,90.5,60.69,90.29Z"/><path class="a" d="M61.81,105.42c-.1.13-.12.57.12.55C61.87,105.8,62.06,105.39,61.81,105.42Z"/><path class="a" d="M61.81,94.18c-.07.16-.15.5.18.43C62.11,94.47,62,94.17,61.81,94.18Z"/><path class="a" d="M63.41,148.4h-.12v.25h.12Z"/><path class="a" d="M65.82,149a.57.57,0,0,0,0-.68C65.68,148.42,65.6,149,65.82,149Z"/><path class="a" d="M66,136.42c-.14.07-.26.65.06.62C66.22,137,66.31,136.38,66,136.42Z"/><path class="a" d="M66.07,126.91c-.25.39-.22,1,.24,1.11C66.52,127.74,66.47,127,66.07,126.91Z"/><path class="a" d="M65.33,127.4c-.32-.4-.77.13-.87.5.15.14.2.37.5.37A1,1,0,0,0,65.33,127.4Z"/><path class="a" d="M63.78,128.39a.86.86,0,0,0,.5-.62,1.29,1.29,0,0,0-.5-.24A.67.67,0,0,0,63.78,128.39Z"/><path class="a" d="M64.46,101.9c-.08,0-.12-.09-.24-.06v.24C64.41,102.14,64.41,102,64.46,101.9Z"/><path class="a" d="M64.77,134.51c.15-.11.13-.36.12-.62C64.52,133.81,64.49,134.46,64.77,134.51Z"/><path class="a" d="M62.24,144.64c.13,0,.2-.42,0-.44S61.89,144.62,62.24,144.64Z"/><path class="a" d="M58.35,144.14c-.13.17-.07.57.12.62C58.56,144.62,58.6,144.13,58.35,144.14Z"/><path class="a" d="M58.29,90c-.12.48-.45.75-.44,1.36.16.07.23.22.44.25C58.72,91.31,58.92,90.32,58.29,90Z"/><path class="a" d="M57.24,127.71c0,.29.34.46.55.68C58.71,127.5,57.24,126.66,57.24,127.71Z"/><path class="a" d="M57.05,102.08c.32-.06.32-.74,0-.8C57,101.47,56.75,102,57.05,102.08Z"/><path class="a" d="M57.05,114.56h-.18a1,1,0,0,0,0,.74C57.16,115.2,57.06,114.83,57.05,114.56Z"/><path class="a" d="M56.93,113c-.38.11-.31,1,.06,1C57.25,113.76,57.33,113.1,56.93,113Z"/><path class="a" d="M59,127.09c-.06.23-.23.57-.06.81C59.55,128,59.35,127.13,59,127.09Z"/><path class="a" d="M60.14,134H60c-.08.27-.35.7.07.8C60.22,134.67,60.27,134.17,60.14,134Z"/><path class="a" d="M60.2,127.22c-.45,0-.39.84.06.8A.44.44,0,0,0,60.2,127.22Z"/><path class="a" d="M60.51,105.3c-.12.14-.06.51,0,.67C60.87,106,60.83,105.27,60.51,105.3Z"/><path class="a" d="M60,132.47a.47.47,0,0,0,0,.43C60.31,132.94,60.36,132.41,60,132.47Z"/><path class="a" d="M59.52,148.28l0,.12c0,.11.11.22.17.33C59.78,148.6,59.71,148.25,59.52,148.28Z"/><path class="a" d="M60.57,103.87c-.08.08-.06.27-.06.44C60.74,104.4,60.8,103.84,60.57,103.87Z"/><path class="a" d="M59.89,138.89c-.29.22-.5,1,.13,1C60.21,139.64,60.32,139,59.89,138.89Z"/><path class="a" d="M60,135.87c-.1.08-.06.32.12.3C60.11,136.06,60.22,135.8,60,135.87Z"/><path class="a" d="M110.9,99.61c-.08,0-.14.51.07.43S111.12,99.63,110.9,99.61Z"/><path class="a" d="M110.78,116.35c-.06.17-.24.52.06.56S111.05,116.28,110.78,116.35Z"/><path class="a" d="M110.72,103.07c-.06.28-.18,1,.12,1.11C110.92,103.84,111.09,103.21,110.72,103.07Z"/><path class="a" d="M107.32,116.29a5.12,5.12,0,0,0,0,2.1C107.61,117.9,107.82,116.68,107.32,116.29Z"/><path class="a" d="M109.73,95.6c-.06.32-.31.71-.06,1C110,96.59,110.13,95.64,109.73,95.6Z"/><path class="a" d="M107.38,120.8c.16-.19.25-.92-.12-.93C107.15,120.15,107.17,120.66,107.38,120.8Z"/><path class="a" d="M103.12,97.2a1.24,1.24,0,0,0,.19-.8C102.79,95.76,102.38,97.19,103.12,97.2Z"/><path class="a" d="M106.52,87.38h-.19c0,.16,0,.3.13.31A.4.4,0,0,0,106.52,87.38Z"/><path class="a" d="M118.93,132.16c-.08,0-.08-.08-.18-.06s-.21.56.06.62A.73.73,0,0,0,118.93,132.16Z"/><path class="a" d="M111,85.59c-.11.11,0,.37-.07.56C111.19,86.12,111.19,85.65,111,85.59Z"/><path class="a" d="M103.93,143c-.08,0-.09-.08-.19-.06a.39.39,0,0,0-.06.3C103.89,143.26,103.9,143.11,103.93,143Z"/><path class="a" d="M106.15,116.47c-.09.1-.13.49.12.44C106.36,116.81,106.4,116.41,106.15,116.47Z"/><path class="a" d="M117.57,138.27c.16-.17.39-.9-.12-.86C117.27,137.65,117.16,138.2,117.57,138.27Z"/><path class="a" d="M117.45,148c-.53,1.06.94.42,0,0Z"/><path class="a" d="M117.7,132.16h-.19a3.37,3.37,0,0,0-.12,1.05C117.84,133.19,117.77,132.52,117.7,132.16Z"/><path class="a" d="M110.9,98.38a.6.6,0,0,0,0,.68c.26,0,.3-.45.19-.68Z"/><path class="a" d="M116.46,138.77c.14-.48.47-1.36,0-1.73A2.17,2.17,0,0,0,116.46,138.77Z"/><path class="a" d="M121.22,98.93c0,.23-.19.43.12.44C121.3,99.23,121.45,98.88,121.22,98.93Z"/><path class="a" d="M118.69,142.1c-.19.14-.2.75.12.74C118.92,142.63,119.06,142.14,118.69,142.1Z"/><path class="a" d="M118.69,148.77c.2-.1.16-.63-.13-.61S118.39,148.78,118.69,148.77Z"/><path class="a" d="M118.69,137.16c-.15.27-.3.77.12.87C119,137.85,119,137.17,118.69,137.16Z"/><path class="a" d="M121.16,96.9a6,6,0,0,0,.06,1.91C121.84,98.48,121.51,97.29,121.16,96.9Z"/><path class="a" d="M115.35,137.78c-.12.06-.13.24-.12.43C115.42,138.27,115.62,137.79,115.35,137.78Z"/><path class="a" d="M121.16,100.23c.26.07.26-.5,0-.43Z"/><path class="a" d="M86.63,104.12v.25h.13v-.25Z"/><path class="a" d="M110.9,96.09c-.1.32-.4,1.13.07,1.3C111.35,97.24,111.29,96.19,110.9,96.09Z"/><path class="a" d="M110.9,95.17a1.11,1.11,0,0,0,0,.74C111.2,95.85,111.39,95.15,110.9,95.17Z"/><path class="a" d="M113.19,116.35c-.18,0-.11.26-.12.43C113.38,116.85,113.48,116.37,113.19,116.35Z"/><path class="a" d="M115.6,116.66c-.08,0-.09-.08-.19-.06s-.1.18-.06.37C115.58,117,115.59,116.84,115.6,116.66Z"/><path class="a" d="M112,116.23h-.19a2.51,2.51,0,0,0,.12,2C112.34,117.89,112.27,116.63,112,116.23Z"/><path class="a" d="M112.14,87.51c0,.11-.17.15-.12.37h.24C112.26,87.71,112.3,87.52,112.14,87.51Z"/><path class="a" d="M111.09,88.25c.32-.45.43-1.27-.19-1.48A1,1,0,0,0,111.09,88.25Z"/><path class="a" d="M86.51,108.57c0,.21-.18.65.12.68C86.7,109.12,86.81,108.52,86.51,108.57Z"/><path class="a" d="M86.63,105.6c-.17.19-.34,1,0,1.12C86.87,106.55,87.05,105.71,86.63,105.6Z"/><path class="a" d="M87,89c.12,0,.1-.46-.06-.43S86.77,89,87,89Z"/><path class="a" d="M103.06,84.48c-.24.14-.22.58-.06.8C103.31,85.23,103.32,84.61,103.06,84.48Z"/><path class="a" d="M86.45,120.55c-.06.16-.13.49.12.49S86.59,120.58,86.45,120.55Z"/><path class="a" d="M86.63,112h-.18c-.12.35-.31,1.39.12,1.55C86.51,112.91,86.81,112.49,86.63,112Z"/><path class="a" d="M86.57,114.37h-.18c-.11.27-.39.89.12.93A.86.86,0,0,0,86.57,114.37Z"/><path class="a" d="M88.55,149.08c-.17.21-.26.7.06.8C88.86,149.77,88.88,149.12,88.55,149.08Z"/><path class="a" d="M87.74,121.66a.68.68,0,0,0,.07-.68h-.19A.55.55,0,0,0,87.74,121.66Z"/><path class="a" d="M87.81,120.18a1.06,1.06,0,0,0,0-.5C87.54,119.61,87.54,120.25,87.81,120.18Z"/><path class="a" d="M90.09,115a.41.41,0,0,0-.06.31C90.23,115.39,90.33,115,90.09,115Z"/><path class="a" d="M87.68,116c-.12.15-.39.85,0,.93C88,116.88,88,116.13,87.68,116Z"/><path class="a" d="M87.81,114.81h-.19c-.15.21-.19.73.12.8A.86.86,0,0,0,87.81,114.81Z"/><path class="a" d="M86.32,127.59v.18C86.5,127.86,86.5,127.5,86.32,127.59Z"/><path class="a" d="M83,93.87c.94,1.15.76-1.47,0,0Z"/><path class="a" d="M85.89,89.42c.33-.26.31-1-.12-1.17C85.53,88.54,85.35,89.33,85.89,89.42Z"/><path class="a" d="M83.24,92.33c.18.09.18-.28,0-.19Z"/><path class="a" d="M85.77,85.47c-.09.08-.12.43.06.43S86.07,85.44,85.77,85.47Z"/><path class="a" d="M83.36,88.74c0,.12-.18.11-.12.31a.3.3,0,0,0,.24-.06A.27.27,0,0,0,83.36,88.74Z"/><path class="a" d="M84.16,125.61c.18-.39.46-1.59,0-1.85A1.58,1.58,0,0,0,84.16,125.61Z"/><path class="a" d="M84.1,134.51c.1-.41.37-1.2-.06-1.42C84.05,133.55,83.61,134.3,84.1,134.51Z"/><path class="a" d="M85.58,98.62c0,.36-.34.87.13,1-.09-1.25.4-3.06.12-4.44-.08,0-.08-.08-.18-.07-.27.43-.11.89-.13,1.49s-.15,1-.12,1.42C85.41,98.22,85.57,98.41,85.58,98.62Z"/><path class="a" d="M85.21,127.9c.39.06.38-.54.06-.56C85.1,127.48,85.17,127.67,85.21,127.9Z"/><path class="a" d="M84.53,128.64c-.25-.76.17-1.87-.49-2.53-.27.85.06,2.42-1.11,2.53.62,0,.66.57,1.17.68A1,1,0,0,0,84.53,128.64Z"/><path class="a" d="M85.34,129.07c.4-1.6-1.11-.06,0,0Z"/><path class="a" d="M97.44,98c-.08,0-.09-.08-.18-.06a1,1,0,0,0,0,.74C97.53,98.69,97.55,98.2,97.44,98Z"/><path class="a" d="M99.42,128.7a1.64,1.64,0,0,0,0-1.42h-.19A1.43,1.43,0,0,0,99.42,128.7Z"/><path class="a" d="M97.32,105.85h-.25c-.15.22-.14.63.25.62A1,1,0,0,0,97.32,105.85Z"/><path class="a" d="M97.13,108.38a.47.47,0,0,0-.06.56C97.35,109,97.43,108.4,97.13,108.38Z"/><path class="a" d="M95.16,87.38c0,.1,0,.23.06.25S95.37,87.33,95.16,87.38Z"/><path class="a" d="M97.13,116.84c.08-.06.16-.65-.06-.61S96.82,116.81,97.13,116.84Z"/><path class="a" d="M97.26,96v.74C97.51,96.8,97.56,96,97.26,96Z"/><path class="a" d="M99,145.25c.36.14.35-.67.07-.61C99.08,144.89,98.82,145.05,99,145.25Z"/><path class="a" d="M98.43,112.21h-.19c0,.18,0,.43.13.43S98.46,112.45,98.43,112.21Z"/><path class="a" d="M98.24,117.21h.19c0-.14,0-.23-.12-.24S98.24,117.1,98.24,117.21Z"/><path class="a" d="M98.24,113.75c-.1.13-.11.53.19.44C98.42,114,98.49,113.72,98.24,113.75Z"/><path class="a" d="M90,117.4c.45-.08.49-1,.06-1.11A1.08,1.08,0,0,0,90,117.4Z"/><path class="a" d="M88.79,114.87c-.48.73-.07,1.62,0,2.34,0,.25-.16.58.13.68.35-.29,0-1.15.06-1.85C89,115.51,89.29,115,88.79,114.87Z"/><path class="a" d="M101.46,149.82c.18-.14.3-.64-.13-.62C101.22,149.37,101.23,149.81,101.46,149.82Z"/><path class="a" d="M100.41,147v-.25h-.19C100.2,146.9,100.2,147,100.41,147Z"/><path class="a" d="M100.53,96.9h.25c.1-.1.07-.39-.13-.38S100.48,96.68,100.53,96.9Z"/><path class="a" d="M94.85,117c.26-.08.21-.63.12-.87h-.18C94.67,116.33,94.42,116.89,94.85,117Z"/><path class="a" d="M92.38,117c.19,0,.19-.1.31-.13,0-.19,0-.37-.25-.37C92.36,116.65,92.29,116.78,92.38,117Z"/><path class="a" d="M90.4,95.6c.19.09.19-.4,0-.31Z"/><path class="a" d="M90.4,88.62c-.19.09-.12.44.06.49S90.7,88.59,90.4,88.62Z"/><polygon class="a" points="111.84 212.66 111.5 216.46 115.12 216.79 116.39 215.49 116.49 214.49 115.46 212.99 111.84 212.66"/><polygon class="a" points="180.12 38.09 181.28 37.73 181.71 37.13 181.58 36.04 179.43 34.51 177.97 36.56 180.12 38.09"/><polygon class="a" points="166.5 24.04 166.78 23.41 166.45 22.21 164.18 21.18 163.1 23.56 165.38 24.59 166.5 24.04"/><polygon class="a" points="35.75 171.86 39.33 167.38 33.7 168.49 35.75 171.86"/><polygon class="a" points="129.64 212.95 126.03 213.16 126.26 216.97 129.87 216.75 130.94 215.27 130.88 214.26 129.64 212.95"/><polygon class="a" points="183.6 34.32 183.99 33.77 183.91 32.52 181.88 31.07 180.37 33.19 182.4 34.63 183.6 34.32"/><polygon class="a" points="85.23 23.9 82.59 21.04 82.76 24.93 85.23 23.9"/><polygon class="a" points="95.01 23.09 95.7 22.02 94.21 17.17 93.03 16.66 90.24 17.52 92.21 23.95 95.01 23.09"/><polygon class="a" points="75.58 26.47 75.82 25.24 75.5 24.63 74.35 24.17 72.16 25.33 73.39 27.64 75.58 26.47"/><polygon class="a" points="141.09 14.82 139.11 18.18 141.75 18.66 141.09 14.82"/><polygon class="a" points="207.56 69.05 208.61 70.96 209.79 71.4 214.24 68.96 214.51 67.72 213.46 65.81 212.27 65.37 207.81 67.81 207.56 69.05"/><polygon class="a" points="44.94 53.43 41.25 52.19 43.27 55.52 44.94 53.43"/><polygon class="a" points="119.38 19.26 121.56 19.22 122.5 18.38 122.4 13.3 121.43 12.49 119.25 12.53 118.31 13.38 118.4 18.46 119.38 19.26"/><path class="a" d="M244.06,107h-5.21A116.9,116.9,0,0,0,5.9,107H.7a.7.7,0,0,0-.7.7v20.88a.7.7,0,0,0,.7.7H6.14a116.9,116.9,0,0,0,232.49,0h5.43a.7.7,0,0,0,.7-.7V107.65A.7.7,0,0,0,244.06,107ZM223.63,85.3a.07.07,0,0,1,0,.06l.4,1.44a.1.1,0,0,1,0,.09l-5.48,5.48L225,90.59a.11.11,0,0,1,.11.06l.37,1.37a.08.08,0,0,1,0,.07.13.13,0,0,1-.06,0l-4,1.1-.46.94a.12.12,0,0,1-.05,0h-.07l-.87-.58-3.95,1.09s0,0,0,0h0s0,0,0-.06l-.38-1.37a.08.08,0,0,1,0-.08l5.65-5.62-6.65,1.84h-.06a.07.07,0,0,1,0,0L214.11,88a.08.08,0,0,1,.06-.1l4-1.09.45-.94a.1.1,0,0,1,.05,0,.08.08,0,0,1,.07,0l.88.57,4-1.1Zm-5.45-14.22a.13.13,0,0,1,.06,0l.6,1.5a.08.08,0,0,1,0,.1l-6.1,4.79,7.51-1.29a.09.09,0,0,1,.1,0l.61,1.5a.11.11,0,0,1,0,.11l-6.29,4.3,7.71-.82a.08.08,0,0,1,.09,0l.61,1.52a.09.09,0,0,1,0,.07.08.08,0,0,1-.07,0l-4.36.37-.4,1a.06.06,0,0,1-.06,0h0l-.06,0-1-.91-4.27.34a.11.11,0,0,1-.09-.05l-.61-1.52a.07.07,0,0,1,0-.1l5.72-4.06-6.93,1.09a.09.09,0,0,1-.1-.06l-.61-1.51a.08.08,0,0,1,0-.1l3.3-2.74.1-1.35a.08.08,0,0,1,0-.07.11.11,0,0,1,.08,0l1,.44,3.38-2.77A.08.08,0,0,1,218.18,71.08Zm-3.62-6.6,1.66,3a.13.13,0,0,1,0,.06L215.68,70a.07.07,0,0,1,0,.05l-2.22,1.22-.23,1s0,0,0,.06h-.07l-1-.36-2.17,1.19h-.08l-2.29-.82a.1.1,0,0,1,0,0l-1.66-3a.07.07,0,0,1,0-.06l.54-2.39a.07.07,0,0,1,0-.06l2.17-1.19.22-1a.07.07,0,0,1,0-.06h.07l1,.36,2.21-1.22h.07l2.31.82Zm-9.25-5.18a.07.07,0,0,1,0-.06.09.09,0,0,1,.07,0l1,.27L208.62,58l-1.54-2.3a.07.07,0,0,1,0-.11l1.18-.8a.08.08,0,0,1,.12,0l4,5.9a.07.07,0,0,1,0,.06.13.13,0,0,1,0,.06l-1.18.79a.08.08,0,0,1-.12,0l-1.53-2.28-2.21,1.48-.12,1s0,0,0,.06a.09.09,0,0,1-.07,0l-1-.27-3.4,2.29,0,0a.1.1,0,0,1-.07,0l-.8-1.18a.17.17,0,0,1,0-.07.1.1,0,0,1,0-.05l3.4-2.29ZM198,42.51s.05,0,.06,0l1,1.11a.08.08,0,0,1,0,.08l-2.36,7.39,4.92-4.54a.09.09,0,0,1,.13,0l1,1.05a.07.07,0,0,1,0,.06.11.11,0,0,1,0,.06l-3.06,2.81,0,1a.11.11,0,0,1,0,.06.09.09,0,0,1-.07,0l-1-.12-3,2.78-.06,0a.11.11,0,0,1-.06,0l-1-1a.1.1,0,0,1,0-.09l2.45-7.58-5.07,4.68a.08.08,0,0,1-.12,0l-1-1a.09.09,0,0,1,0-.13l3-2.77,0-1a.07.07,0,0,1,0-.06.11.11,0,0,1,.07,0l1,.11,3-2.81ZM190.06,42a.07.07,0,0,1,0-.06l.06,0,1,0,2.84-3a.08.08,0,0,1,.12,0l1,1a.06.06,0,0,1,0,.06.14.14,0,0,1,0,.06l-2.85,3,.11,1a.08.08,0,0,1,0,.07.09.09,0,0,1-.06,0h0l-1,0-2.79,3a.06.06,0,0,1-.06,0l-.06,0-1-1a.08.08,0,0,1,0-.12l2.78-3Zm-8.61-13.06.06,0a.07.07,0,0,1,.06,0l3.85,2.74a.07.07,0,0,1,0,.06l.23,2.41a.08.08,0,0,1,0,.06l-1.13,1.6-.05,0-1.27.3.19,1.37a.07.07,0,0,1,0,.06l-1.18,1.66a.05.05,0,0,1,0,0l-2.3.6h-.07l-4-2.83a.06.06,0,0,1,0-.06.07.07,0,0,1,0-.06l2.38-3.34-.24-1a.09.09,0,0,1,0-.07.09.09,0,0,1,.07,0l1-.1ZM168.89,27.1a.12.12,0,0,1,.05-.05l1-.2,2.07-3.6a.08.08,0,0,1,.12,0l1.23.71a.07.07,0,0,1,0,.05,0,0,0,0,1,0,.06l-3.69,6.41.41,1.21L172,32.75l1.25-.26L177,26.08a.09.09,0,0,1,.06,0h.06l1.23.71a.07.07,0,0,1,0,0,.09.09,0,0,1,0,.07l-2.08,3.6.34,1a.17.17,0,0,1,0,.07.09.09,0,0,1-.06,0l-1,.2-1.22,2.13s0,0-.06,0l-2.4.51h-.06l-3-1.73s0,0,0,0L168,30.35a.09.09,0,0,1,0-.07l1.23-2.13-.34-1A.06.06,0,0,1,168.89,27.1Zm-9.56.94L161,24.31l-.44-.95a.08.08,0,0,1,0-.07.07.07,0,0,1,.06,0l1-.31,1.71-3.79a.1.1,0,0,1,.12,0l4.3,1.94s0,0,.05.06l.69,2.31a.06.06,0,0,1,0,.06l-.81,1.79s0,0,0,0l-2.2,1a.09.09,0,0,1-.07,0L162.45,25l-1.66,3.68a.1.1,0,0,1,0,0h-.07l-1.29-.58A.09.09,0,0,1,159.33,28Zm-13-9.29a.06.06,0,0,1,0-.07.07.07,0,0,1,0-.05l.94-.46,1.12-4a.09.09,0,0,1,.1-.06l1.38.39a.07.07,0,0,1,.05,0,.13.13,0,0,1,0,.06l-2.22,7.94L152,23.72a.08.08,0,0,1,.06.11l-.38,1.37a.1.1,0,0,1,0,.05h-.07l-5.67-1.59s0,0-.06,0a.06.06,0,0,1,0-.06l1.1-3.95Zm-11,2.71,2.23-3.73L137,17a.11.11,0,0,1,0-.08.06.06,0,0,1,.06-.05l1.24-.38,2.33-3.91a.1.1,0,0,1,.09,0l1.47.27a.1.1,0,0,1,.07.07l1.85,10.25a.08.08,0,0,1,0,.08l-.06,0h0l-1.46-.27s-.06,0-.07-.07l-.46-2.5-3.81-.69-1.31,2.18a.08.08,0,0,1-.09,0l-1.46-.27a.06.06,0,0,1-.06-.05S135.31,21.49,135.32,21.46Zm-9-5.65.83-.63.34-4.14s0-.07.09-.08l1.5.13a.08.08,0,0,1,.07,0l3.27,7,.54-6.67a.09.09,0,0,1,0-.06.08.08,0,0,1,.07,0l1.42.11a.05.05,0,0,1,.05,0s0,0,0,.06l-.33,4.14.72.76a.07.07,0,0,1,0,.06.1.1,0,0,1,0,.07l-.83.61-.33,4.08a.08.08,0,0,1-.09.08h0l-1.42-.11a.08.08,0,0,1-.07-.05L128.81,14l-.56,6.87a.06.06,0,0,1,0,.06.07.07,0,0,1-.06,0l-1.42-.11a.1.1,0,0,1-.08-.1l.33-4.08-.72-.74a.09.09,0,0,1,0-.07A.08.08,0,0,1,126.28,15.81Zm-10.3.12.77-.71,0-2.53a.11.11,0,0,1,0-.07l1.8-1.65a.09.09,0,0,1,.06,0l3.46-.06,0,0L124,12.49a.09.09,0,0,1,0,.06l0,2.53.8.68a.09.09,0,0,1,0,.06.09.09,0,0,1,0,.07l-.77.69,0,2.48a.07.07,0,0,1,0,.06l-1.79,1.66-.06,0-3.46.07h0l0,0-1.87-1.59a.09.09,0,0,1,0-.07l0-2.47-.79-.67a.06.06,0,0,1,0-.06A.07.07,0,0,1,116,15.93Zm-4.75.49.71-.75-.39-4.15a.09.09,0,0,1,.08-.09l1.41-.14.07,0a.09.09,0,0,1,0,.06l.39,4.15.84.6,0,.06a.09.09,0,0,1,0,.07l-.71.76.38,4.07s0,.05,0,.06a.09.09,0,0,1-.06,0l-1.41.13h0a.1.1,0,0,1-.09-.08l-.38-4.07-.84-.61a.1.1,0,0,1,0-.07A.09.09,0,0,1,111.23,16.42Zm-9.32-3.61,7-1.13a.08.08,0,0,1,.1.07l.23,1.4a.08.08,0,0,1-.07.1l-2.71.44.42,2.62.88.55a.09.09,0,0,1,0,.06.19.19,0,0,1,0,.07l-.66.79.65,4a.07.07,0,0,1,0,.06.1.1,0,0,1-.05,0l-1.41.22h-.06s0,0,0-.06l-.65-4-.88-.54a.08.08,0,0,1,0-.06.08.08,0,0,1,0-.07l.66-.8-.42-2.62-2.73.44a.07.07,0,0,1-.06,0,.09.09,0,0,1,0-.06l-.23-1.4A.08.08,0,0,1,101.91,12.81Zm-4.1,1a.1.1,0,0,1,0,0l1.39-.32a.08.08,0,0,1,.1.07l.94,4.06.91.48a.1.1,0,0,1,0,.06.1.1,0,0,1,0,.07l-.61.85.92,4a.08.08,0,0,1-.06.1l-1.39.32h0l0,0a.05.05,0,0,1,0,0l-.92-4-.92-.5a.08.08,0,0,1,0-.06.09.09,0,0,1,0-.07l.61-.84-.93-4A.08.08,0,0,1,97.81,13.78Zm-9.53,2.7a.07.07,0,0,1,0,0l4.86-1.5h.07l2.22,1a.07.07,0,0,1,0,.06l1.91,6.2a.08.08,0,0,1,0,.07l-1.27,2.09,0,0-4.87,1.49h0a.1.1,0,0,1-.08-.06L89.93,22l-1-.43a.12.12,0,0,1,0-.05.08.08,0,0,1,0-.07l.55-.88-1.22-4A.09.09,0,0,1,88.28,16.48Zm-8,8.41.84-1L81,19.34a.08.08,0,0,1,.06-.08l1.37-.57a.08.08,0,0,1,.1,0l7.12,7.6a.07.07,0,0,1,0,.07s0,.05,0,.06L88.23,27a.1.1,0,0,1-.09,0L86.4,25.15l-3.58,1.48.09,2.54a.08.08,0,0,1-.06.08l-1.37.58H81.4a.1.1,0,0,1,0-.07L81.2,25.4,80.35,25s0,0,0-.06A.07.07,0,0,1,80.32,24.89Zm-10.24-.26,4.16-2.21a.09.09,0,0,1,.07,0l2.26.88s0,0,0,0l.92,1.72a.13.13,0,0,1,0,.06L77,27.43l3.69,2.65a.09.09,0,0,1,0,.08.08.08,0,0,1,0,.07L79.33,31a.07.07,0,0,1-.09,0l-3.69-2.66-1.42.76L76,32.61a.17.17,0,0,1,0,.07.12.12,0,0,1-.05,0l-1.25.67h0a.08.08,0,0,1-.08,0L72.7,29.75l-1-.24s0,0-.06-.05a.08.08,0,0,1,0-.07l.37-1-2-3.68a.08.08,0,0,1,0-.07A.07.07,0,0,1,70.08,24.63Zm-8.21,5.15,6-3.86A.1.1,0,0,1,68,26l.77,1.19a.09.09,0,0,1,0,.07.07.07,0,0,1,0,.05l-2.3,1.49L67.84,31l1,.15s0,0,.06,0a.17.17,0,0,1,0,.07l-.29,1,2.23,3.44a.17.17,0,0,1,0,.07.1.1,0,0,1,0,0l-1.2.78h0a.09.09,0,0,1-.08,0L67.31,33.1l-1-.14-.06,0a.17.17,0,0,1,0-.07l.29-1-1.44-2.23-2.32,1.5a.08.08,0,0,1-.07,0,.05.05,0,0,1-.05,0l-.77-1.2a0,0,0,0,1,0-.06A.06.06,0,0,1,61.87,29.78ZM50.11,39.27l5.36-4.67a.09.09,0,0,1,.12,0l.94,1.07a.14.14,0,0,1,0,.07.09.09,0,0,1,0,.06l-2.07,1.8,1.74,2h1a.09.09,0,0,1,.06,0,.1.1,0,0,1,0,.07l-.14,1,2.69,3.1a.11.11,0,0,1,0,.06.09.09,0,0,1,0,.06l-1.07.93a.07.07,0,0,1-.06,0,.09.09,0,0,1-.07,0L56,41.78h-1a.09.09,0,0,1-.07,0,.11.11,0,0,1,0-.06l.15-1-1.75-2-2.08,1.81a.07.07,0,0,1-.06,0,.06.06,0,0,1-.06,0l-.94-1.07A.09.09,0,0,1,50.11,39.27Zm-5,5.08s0,0,0-.06l2.15-2.22,0,0,2.44-.18a.06.06,0,0,1,.07,0L51,43a.09.09,0,0,1,0,.12l-1,1a.08.08,0,0,1-.12,0l-.7-.68L48,43.58,46.67,45l-.07,1.18.67.65,1.18-.1,1.76-1.83.06,0,2.44-.2a.11.11,0,0,1,.07,0l1.75,1.69a.06.06,0,0,1,0,.07l-.1,2.44a.09.09,0,0,1,0,.06l-2.29,2.38-.06,0-2.44.19h0l-.06,0L48.29,50.3a.09.09,0,0,1,0-.06.09.09,0,0,1,0-.07l1-1s0,0,.06,0a.07.07,0,0,1,.06,0l.76.73,1.26-.11,1.41-1.47L52.9,47l-.72-.7-1.26.12-1.71,1.77a.09.09,0,0,1-.06,0l-2.45.18-.07,0L45,46.86a.14.14,0,0,1,0-.06Zm-6.06,7L40,50.21a.1.1,0,0,1,.09,0L50,53.41a.09.09,0,0,1,.06.06.08.08,0,0,1,0,.08l-.93,1.16a.08.08,0,0,1-.09,0L46.56,54l-2.41,3,1.29,2.19a.09.09,0,0,1,0,.1l-.93,1.16a.09.09,0,0,1-.07,0h0a.08.08,0,0,1-.07,0l-2.24-3.73-.93.07a.1.1,0,0,1-.07,0,.11.11,0,0,1,0-.08l.26-1.27L39,51.48A.08.08,0,0,1,39,51.38Zm-5.85,8.19a.07.07,0,0,1,.06,0h.06l6.88,4.54,2.41-3.66s0,0,.06,0h.06l1.19.79a.07.07,0,0,1,0,0,.17.17,0,0,1,0,.07l-3.25,4.92a.08.08,0,0,1-.07,0h0L37.15,64l-1,.27a.06.06,0,0,1-.07,0,.05.05,0,0,1,0-.06l-.15-1-3.47-2.28a.08.08,0,0,1,0-.12Zm-8,14.8L27.71,69a.09.09,0,0,1,.12,0l1.29.6a.1.1,0,0,1,0,0,.06.06,0,0,1,0,.06l-1.86,4,2.36,1.09,1.42-3a.07.07,0,0,1,.05,0h.06l1.29.6a.12.12,0,0,1,.05,0,.17.17,0,0,1,0,.07l-1.42,3,2.29,1.07,1.86-4a.08.08,0,0,1,.11,0l1.29.6.05,0a.13.13,0,0,1,0,.06L34.2,78.56a.1.1,0,0,1-.08,0h0l-3.7-1.72-1,.41h-.07a.07.07,0,0,1,0-.05l-.29-1-3.76-1.76A.08.08,0,0,1,25.22,74.37Zm-3.41,8.89a.08.08,0,0,1,.11-.05l3.86,1.37,1.31-3.66-3.87-1.37a.12.12,0,0,1,0,0,.06.06,0,0,1,0-.06l.47-1.34a.08.08,0,0,1,.11,0l3.91,1.39.91-.51a.06.06,0,0,1,.07,0l.05,0,.39,1,3.85,1.37a.1.1,0,0,1,0,0,.09.09,0,0,1,0,.07l-.48,1.34a.09.09,0,0,1-.11,0l-3.8-1.35-1.3,3.66,3.8,1.35a.09.09,0,0,1,.05.11l-.47,1.34a.08.08,0,0,1-.05,0h-.06l-3.85-1.37-.92.5a.09.09,0,0,1-.07,0,.12.12,0,0,1,0-.05l-.38-1-3.91-1.39a.07.07,0,0,1-.05,0,.09.09,0,0,1,0-.07Zm-1.33,4.12a.09.09,0,0,1,.11-.07l1.38.35a.1.1,0,0,1,.05,0,.08.08,0,0,1,0,.07l-.67,2.66,2.57.65.85-.59a.08.08,0,0,1,.07,0s0,0,.06,0l.46.93,4,1a.09.09,0,0,1,.06.11l-.35,1.38A.09.09,0,0,1,29,94l-4-1-.85.59a.08.08,0,0,1-.07,0,.08.08,0,0,1,0,0l-.47-.92L21,92l-.67,2.67a.09.09,0,0,1,0,.06h-.07l-1.38-.35a.09.09,0,0,1-.06-.11Zm4.27,61.92.08,0,2-.69.72,2.09-.08,0-2,.69ZM32,176.66l2.3-2.94-2.91-4.79-3.67.69,0-.05-1.18-1.94.12,0,6.16-1.17.39-1.42,1.7,1,6.5-1.23,0,.05,1.14,1.88,0,.05-9.31,11.85ZM42.38,190l-.05-.07-5.48-6.55,4.59-3.84,0-1.6,1.6.24,4.65-3.88,1.42,1.7-.07,0L40,183.68l4.11,4.92Zm10.3,1.76-4.1,4.33L47,194.58l.06-.06,4-4.26-.14-1.61,1.6.07,4.18-4.41,1.61,1.53-.06.06-4.13,4.34.16,1.6ZM66,199l1.23-1.65-.44-1.76-2.53-1.88-1.85.13L58,199.68l.4,1.81L61,203.37l1.81-.09,1-1.42,1.78,1.32L64,205.4h0l-3.52.32-4-3v0l-.74-3.47,0,0,2.13-2.87-.33-1.57,1.59-.13,2.21-3h0l3.54-.3,0,0,4,3v0l.72,3.46,0,0-1.8,2.41Zm15.26,5.17-.07,0-5.58-3-1.79,3.34,4.35,2.34-1,2-.07,0-4.28-2.3L71,209.67l5.65,3-1,2-.08,0-7.52-4,2.82-5.25-.56-1.52,1.56-.35,2.87-5.34.07,0,7.53,4Zm22.34,10-2.13-.52.36-1.46-1-1.39L98,210.12l-1.54.77-.33,1.33,1,1.42,3.58.88,0,0,2,2.93-.85,3.46,0,0-3.14,1.65-4.67-1.15,0,0-2-2.92.64-2.59,2.15.53L94.45,218l1.07,1.51,2.86.71,1.65-.85.36-1.44-1.07-1.49-3.49-.86,0,0-2-2.94v0l.78-3.15,0,0,3.14-1.64,4.37,1.07,0,0,2,2.92Zm15,2.45,0,0L116,219.09h0l-4.63-.41-.53,5.89-2.21-.2.54-6L108,217.25l1.3-1,.54-6,6.88.63,0,0,2,2.83ZM132,224.77l0,0L128.76,219l-2.36.14.36,5.91-2.22.13v-.08l-.35-5.87-1.28-1,1.15-1.12-.37-6.06h.09l6.78-.41,0,0,2.45,2.52.17,2.86,0,0-2.07,2.72,3.31,5.8Zm10.62-1.52-2.09.38,0-.09-1-5.78-1.38-.84,1-1.25-1.07-6h.08l2.09-.38,0,.08,1.06,5.9,1.38.82-1,1.27,1.06,5.87Zm17.12-4.61-2,.63,0,0-8.45-7.9,3,9.65-.08,0-2,.64,0-.08-1.78-5.63L147,215.3l.84-1.38L146,208.14l.09,0,2.1-.66,0,0,8.25,7.67-3-9.38,2.11-.67,0,.09,1.8,5.69,1.47.66-.84,1.37,1.8,5.7Zm15.53-9.79L174,212.14l0,0-4.46,2.25h0l-3.42-.91,0,0-1.61-3.18-1.55-.39.59-1.5-1.66-3.29,0,0,1.29-3.29h0l4.43-2.23h0l3.42.91,0,0,1.39,2.66-.08,0-1.9,1-.86-1.69-1.83-.54L165,203.32l-.7,1.71,3.3,6.52,1.79.45,2.8-1.41.66-1.8-.61-1.22-2.42,1.23-1-2,4.4-2.22,2.13,4.22Zm13-8.84-.79,3.46,0,0-3.88,2.78h0l-3.54-.36,0,0-1.53-2.13,1.8-1.29.94,1.31,1.84.16,2.4-1.72.42-1.8L185,199.2l-1.84-.15-2.91,2.1h0l-3.55-.37-1.92-2.67v0l.78-3.45,0,0,3.63-2.61h0l3.53.36,0,0,1.41,2-.07.06-1.72,1.23-.87-1.22-1.71-.15-2.31,1.67-.41,1.67.8,1.11,1.72.16,3-2.15h0l3.54.35,0,0,2.07,2.86ZM208,183.21h-.05l-11.41-1.92,7.87,6.36L203,189.36l-4.66-3.76-1.57.28-.07-1.61L192,180.46l1.45-1.78h0l11.12,1.84L197,174.33l1.39-1.72,4.72,3.81,1.59-.27,0,1.6,4.66,3.76Zm6.86-10-.07,0-5.07-3-1.52.51-.28-1.58-3.32-2-2.09,3.5-1.9-1.13,0-.08,5.27-8.82,1.9,1.13,0,.08-2,3.42,3.32,2,1.52-.5.28,1.57,5.14,3.07Zm4.37-21.58-2.09-.73.73-2.09,2.09.72Zm24.14-23.83H190.64a.6.6,0,0,0-.24.05l-.07,0a.53.53,0,0,0-.15.11l-.05,0a1.27,1.27,0,0,0-.13.19h0l0,0a1.18,1.18,0,0,0,0,.2v.07a.86.86,0,0,0,.05.23h0a.62.62,0,0,0,.11.17l13.2,16.1a85.69,85.69,0,0,1-161.85,0L54.67,129a.59.59,0,0,0,.1-.17h0a.59.59,0,0,0,0-.23v0s0,0,0,0a.65.65,0,0,0,0-.2l0,0h0a.8.8,0,0,0-.13-.19l0,0a.57.57,0,0,0-.16-.11l-.06,0-.1,0a.21.21,0,0,1,0-.08H54a.11.11,0,0,1,0,0H1.4V108.35H54.12a.7.7,0,1,0,0-1.4H37.27a85.67,85.67,0,0,1,170.19,0H190.64a.7.7,0,1,0,0,1.4h52.72Z"/><polygon class="a" points="201.99 121.59 200.56 121.59 200.56 118.33 201.5 117.51 200.56 116.7 200.56 111.89 198.9 111.89 197.47 112.9 197.47 114.13 198.9 114.13 198.9 116.7 197.96 117.51 198.9 118.33 198.9 121.59 197.45 121.59 197.45 123.21 201.99 123.21 201.99 121.59"/><path class="a" d="M209.85,123.21l2.13-1.88v-3l.94-.82-.94-.83v-2.92l-2.13-1.87h-3.24l-2.12,1.87v2.95l2.12,1.62,3.69,0,0,2.19-1.17,1h-1.84l-1.18-1v-1.33h-1.65v2.06l2.12,1.88Zm-2.76-6.51-1-.79v-1.42l1.18-.94h1.84l1.17,1v2.13Z"/><polygon class="a" points="220.18 123.21 222.29 121.33 222.29 118.06 220.18 116.29 216.57 116.29 216.57 113.59 221.63 113.59 221.63 111.94 214.91 111.94 214.91 117.93 217.08 117.93 219.55 117.93 220.64 118.87 220.64 120.62 219.55 121.56 217.66 121.56 216.57 120.62 216.57 119.44 214.91 119.44 214.91 121.33 217.04 123.21 220.18 123.21"/><path class="a" d="M230,123.21l2.13-1.88v-3l.94-.82-.94-.83v-2.92L230,111.89h-3.24l-2.11,1.87v2.95l2.11,1.62,3.69,0,0,2.19-1.17,1h-1.84l-1.17-1v-1.33H224.6v2.06l2.11,1.88Zm-2.76-6.51-.94-.79v-1.42l1.17-.94h1.84l1.17,1v2.13Z"/><polygon class="a" points="10.47 116.76 9.53 117.58 10.47 118.41 10.47 123.2 17.31 123.2 17.31 121.54 12.12 121.54 12.12 118.41 16.12 118.41 16.12 116.76 12.12 116.76 12.12 113.55 17.31 113.55 17.31 111.89 10.47 111.89 10.47 116.76"/><polygon class="a" points="22.37 116.62 21.27 115.66 21.27 114.49 22.38 113.55 24.73 113.55 25.83 114.49 25.83 115.66 27.47 115.66 27.47 113.78 25.34 111.89 21.75 111.89 19.62 113.78 19.62 116.37 21.75 118.27 24.66 118.27 25.83 119.27 25.83 120.54 24.66 121.56 22.22 121.56 21.04 120.54 21.04 119.27 19.39 119.27 19.39 121.33 21.52 123.21 25.36 123.21 27.48 121.33 27.48 118.5 25.35 116.62 22.37 116.62"/><polygon class="a" points="29.21 113.55 32.52 113.55 32.52 116.77 31.57 117.59 32.52 118.41 32.52 123.21 34.17 123.21 34.17 118.41 35.11 117.59 34.17 116.77 34.17 113.55 37.45 113.55 37.45 111.89 29.21 111.89 29.21 113.55"/><rect class="a" x="38.8" y="121.56" width="1.65" height="1.65"/></svg>